# MagicaVoxel @ Ephtracy

# group
g johnnyTurbo_v1

# material
mtllib johnnyTurbo_v1.mtl
usemtl palette

# normals
vn -1 0 0
vn 1 0 0
vn 0 0 1
vn 0 0 -1
vn 0 -1 0
vn 0 1 0

# texcoords
vt 0.00195313 0.5
vt 0.158203 0.5
vt 0.271484 0.5
vt 0.361328 0.5
vt 0.392578 0.5
vt 0.412109 0.5
vt 0.724609 0.5
vt 0.919922 0.5
vt 0.947266 0.5
vt 0.962891 0.5

# verts
v -10.5 17 1.5
v -10.5 17 0.5
v -10.5 18 1.5
v -10.5 18 0.5
v -5.5 24 1.5
v -5.5 24 0.5
v -5.5 25 1.5
v -5.5 25 0.5
v -4.5 9 1.5
v -4.5 9 0.5
v -4.5 10 2.5
v -4.5 10 1.5
v -4.5 12 2.5
v -4.5 12 0.5
v -4.5 23 1.5
v -4.5 23 0.5
v -4.5 24 1.5
v -4.5 24 0.5
v -4.5 25 1.5
v -4.5 25 0.5
v -4.5 26 1.5
v -4.5 26 0.5
v -3.5 0 1.5
v -3.5 0 -2.5
v -3.5 1 2.5
v -3.5 1 1.5
v -3.5 1 -0.5
v -3.5 1 -2.5
v -3.5 2 2.5
v -3.5 2 1.5
v -3.5 4 1.5
v -3.5 4 0.5
v -3.5 4 -0.5
v -3.5 9 1.5
v -3.5 9 0.5
v -3.5 12 1.5
v -3.5 12 0.5
v -3.5 13 1.5
v -3.5 13 0.5
v -3.5 17 1.5
v -3.5 17 0.5
v -3.5 18 1.5
v -3.5 18 0.5
v -3.5 19 1.5
v -3.5 19 0.5
v -3.5 20 1.5
v -3.5 20 0.5
v -3.5 23 1.5
v -3.5 23 0.5
v -3.5 26 1.5
v -3.5 26 0.5
v -3.5 30 1.5
v -3.5 30 0.5
v -2.5 30 1.5
v -2.5 30 0.5
v -2.5 31 1.5
v -2.5 31 0.5
v 0.5 30 1.5
v 0.5 30 0.5
v 0.5 31 1.5
v 0.5 31 0.5
v 2.5 0 1.5
v 2.5 0 -2.5
v 2.5 1 2.5
v 2.5 1 1.5
v 2.5 1 -0.5
v 2.5 1 -2.5
v 2.5 2 2.5
v 2.5 2 1.5
v 2.5 4 1.5
v 2.5 4 0.5
v 2.5 4 -0.5
v 2.5 10 1.5
v 2.5 10 0.5
v 3.5 10 2.5
v 3.5 10 1.5
v 3.5 11 1.5
v 3.5 12 2.5
v 3.5 12 1.5
v -3.5 10 2.5
v -3.5 10 1.5
v -3.5 11 1.5
v -3.5 12 2.5
v -3.5 12 1.5
v -2.5 0 1.5
v -2.5 0 -2.5
v -2.5 1 2.5
v -2.5 1 1.5
v -2.5 1 -0.5
v -2.5 1 -2.5
v -2.5 2 2.5
v -2.5 2 1.5
v -2.5 4 1.5
v -2.5 4 0.5
v -2.5 4 -0.5
v -2.5 10 1.5
v -2.5 10 0.5
v -0.5 30 1.5
v -0.5 30 0.5
v -0.5 31 1.5
v -0.5 31 0.5
v 2.5 30 1.5
v 2.5 30 0.5
v 2.5 31 1.5
v 2.5 31 0.5
v 3.5 0 1.5
v 3.5 0 -2.5
v 3.5 1 2.5
v 3.5 1 1.5
v 3.5 1 -0.5
v 3.5 1 -2.5
v 3.5 2 2.5
v 3.5 2 1.5
v 3.5 4 1.5
v 3.5 4 0.5
v 3.5 4 -0.5
v 3.5 9 1.5
v 3.5 9 0.5
v 3.5 12 1.5
v 3.5 12 0.5
v 3.5 13 1.5
v 3.5 13 0.5
v 3.5 17 1.5
v 3.5 17 0.5
v 3.5 18 1.5
v 3.5 18 0.5
v 3.5 19 1.5
v 3.5 19 0.5
v 3.5 22 1.5
v 3.5 22 0.5
v 3.5 23 1.5
v 3.5 23 0.5
v 3.5 26 1.5
v 3.5 26 0.5
v 3.5 30 1.5
v 3.5 30 0.5
v 4.5 9 1.5
v 4.5 9 0.5
v 4.5 10 2.5
v 4.5 10 1.5
v 4.5 12 2.5
v 4.5 12 0.5
v 4.5 23 1.5
v 4.5 23 0.5
v 4.5 24 1.5
v 4.5 24 0.5
v 4.5 25 1.5
v 4.5 25 0.5
v 4.5 26 1.5
v 4.5 26 0.5
v 5.5 24 1.5
v 5.5 24 0.5
v 5.5 25 1.5
v 5.5 25 0.5
v 10.5 17 1.5
v 10.5 17 0.5
v 10.5 18 1.5
v 10.5 18 0.5
v -4.5 10 2.5
v -4.5 12 2.5
v -3.5 1 2.5
v -3.5 2 2.5
v -3.5 10 2.5
v -3.5 12 2.5
v -2.5 1 2.5
v -2.5 2 2.5
v 2.5 1 2.5
v 2.5 2 2.5
v 3.5 1 2.5
v 3.5 2 2.5
v 3.5 10 2.5
v 3.5 12 2.5
v 4.5 10 2.5
v 4.5 12 2.5
v -10.5 17 1.5
v -10.5 18 1.5
v -5.5 17 1.5
v -5.5 18 1.5
v -5.5 24 1.5
v -5.5 25 1.5
v -4.5 9 1.5
v -4.5 10 1.5
v -4.5 23 1.5
v -4.5 24 1.5
v -4.5 25 1.5
v -4.5 26 1.5
v -3.5 0 1.5
v -3.5 1 1.5
v -3.5 2 1.5
v -3.5 4 1.5
v -3.5 9 1.5
v -3.5 10 1.5
v -3.5 11 1.5
v -3.5 12 1.5
v -3.5 13 1.5
v -3.5 17 1.5
v -3.5 18 1.5
v -3.5 19 1.5
v -3.5 20 1.5
v -3.5 23 1.5
v -3.5 24 1.5
v -3.5 25 1.5
v -3.5 26 1.5
v -3.5 30 1.5
v -2.5 0 1.5
v -2.5 1 1.5
v -2.5 2 1.5
v -2.5 4 1.5
v -2.5 10 1.5
v -2.5 12 1.5
v -2.5 13 1.5
v -2.5 17 1.5
v -2.5 18 1.5
v -2.5 19 1.5
v -2.5 20 1.5
v -2.5 22 1.5
v -2.5 26 1.5
v -2.5 28 1.5
v -2.5 30 1.5
v -2.5 31 1.5
v -1.5 12 1.5
v -1.5 13 1.5
v -1.5 16 1.5
v -1.5 17 1.5
v -1.5 28 1.5
v -1.5 29 1.5
v -0.5 13 1.5
v -0.5 16 1.5
v -0.5 24 1.5
v -0.5 25 1.5
v -0.5 26 1.5
v -0.5 29 1.5
v -0.5 30 1.5
v -0.5 31 1.5
v 0.5 13 1.5
v 0.5 16 1.5
v 0.5 24 1.5
v 0.5 25 1.5
v 0.5 29 1.5
v 0.5 30 1.5
v 0.5 31 1.5
v 1.5 12 1.5
v 1.5 13 1.5
v 1.5 16 1.5
v 1.5 17 1.5
v 2.5 0 1.5
v 2.5 1 1.5
v 2.5 2 1.5
v 2.5 4 1.5
v 2.5 10 1.5
v 2.5 12 1.5
v 2.5 13 1.5
v 2.5 17 1.5
v 2.5 18 1.5
v 2.5 19 1.5
v 2.5 24 1.5
v 2.5 29 1.5
v 2.5 30 1.5
v 2.5 31 1.5
v 3.5 0 1.5
v 3.5 1 1.5
v 3.5 2 1.5
v 3.5 4 1.5
v 3.5 9 1.5
v 3.5 10 1.5
v 3.5 11 1.5
v 3.5 12 1.5
v 3.5 13 1.5
v 3.5 17 1.5
v 3.5 18 1.5
v 3.5 19 1.5
v 3.5 22 1.5
v 3.5 23 1.5
v 3.5 24 1.5
v 3.5 25 1.5
v 3.5 26 1.5
v 3.5 30 1.5
v 4.5 9 1.5
v 4.5 10 1.5
v 4.5 23 1.5
v 4.5 24 1.5
v 4.5 25 1.5
v 4.5 26 1.5
v 5.5 17 1.5
v 5.5 18 1.5
v 5.5 24 1.5
v 5.5 25 1.5
v 10.5 17 1.5
v 10.5 18 1.5
v -10.5 17 0.5
v -10.5 18 0.5
v -5.5 17 0.5
v -5.5 18 0.5
v -5.5 24 0.5
v -5.5 25 0.5
v -4.5 9 0.5
v -4.5 12 0.5
v -4.5 23 0.5
v -4.5 24 0.5
v -4.5 25 0.5
v -4.5 26 0.5
v -3.5 4 0.5
v -3.5 9 0.5
v -3.5 11 0.5
v -3.5 12 0.5
v -3.5 13 0.5
v -3.5 17 0.5
v -3.5 18 0.5
v -3.5 19 0.5
v -3.5 20 0.5
v -3.5 23 0.5
v -3.5 24 0.5
v -3.5 25 0.5
v -3.5 26 0.5
v -3.5 30 0.5
v -2.5 4 0.5
v -2.5 10 0.5
v -2.5 12 0.5
v -2.5 13 0.5
v -2.5 17 0.5
v -2.5 18 0.5
v -2.5 19 0.5
v -2.5 20 0.5
v -2.5 22 0.5
v -2.5 26 0.5
v -2.5 28 0.5
v -2.5 30 0.5
v -2.5 31 0.5
v -1.5 12 0.5
v -1.5 13 0.5
v -1.5 16 0.5
v -1.5 17 0.5
v -1.5 28 0.5
v -1.5 29 0.5
v -0.5 13 0.5
v -0.5 16 0.5
v -0.5 24 0.5
v -0.5 25 0.5
v -0.5 26 0.5
v -0.5 29 0.5
v -0.5 30 0.5
v -0.5 31 0.5
v 0.5 13 0.5
v 0.5 16 0.5
v 0.5 24 0.5
v 0.5 25 0.5
v 0.5 29 0.5
v 0.5 30 0.5
v 0.5 31 0.5
v 1.5 12 0.5
v 1.5 13 0.5
v 1.5 16 0.5
v 1.5 17 0.5
v 2.5 4 0.5
v 2.5 10 0.5
v 2.5 12 0.5
v 2.5 13 0.5
v 2.5 17 0.5
v 2.5 18 0.5
v 2.5 19 0.5
v 2.5 24 0.5
v 2.5 29 0.5
v 2.5 30 0.5
v 2.5 31 0.5
v 3.5 4 0.5
v 3.5 9 0.5
v 3.5 11 0.5
v 3.5 12 0.5
v 3.5 13 0.5
v 3.5 17 0.5
v 3.5 18 0.5
v 3.5 19 0.5
v 3.5 22 0.5
v 3.5 23 0.5
v 3.5 24 0.5
v 3.5 25 0.5
v 3.5 26 0.5
v 3.5 30 0.5
v 4.5 9 0.5
v 4.5 12 0.5
v 4.5 23 0.5
v 4.5 24 0.5
v 4.5 25 0.5
v 4.5 26 0.5
v 5.5 17 0.5
v 5.5 18 0.5
v 5.5 24 0.5
v 5.5 25 0.5
v 10.5 17 0.5
v 10.5 18 0.5
v -3.5 1 -0.5
v -3.5 4 -0.5
v -2.5 1 -0.5
v -2.5 4 -0.5
v 2.5 1 -0.5
v 2.5 4 -0.5
v 3.5 1 -0.5
v 3.5 4 -0.5
v -3.5 0 -2.5
v -3.5 1 -2.5
v -2.5 0 -2.5
v -2.5 1 -2.5
v 2.5 0 -2.5
v 2.5 1 -2.5
v 3.5 0 -2.5
v 3.5 1 -2.5
v -3.5 0 1.5
v -2.5 0 1.5
v 2.5 0 1.5
v 3.5 0 1.5
v -3.5 0 -2.5
v -2.5 0 -2.5
v 2.5 0 -2.5
v 3.5 0 -2.5
v -3.5 1 2.5
v -2.5 1 2.5
v 2.5 1 2.5
v 3.5 1 2.5
v -3.5 1 1.5
v -2.5 1 1.5
v 2.5 1 1.5
v 3.5 1 1.5
v -4.5 9 1.5
v -3.5 9 1.5
v 3.5 9 1.5
v 4.5 9 1.5
v -4.5 9 0.5
v -3.5 9 0.5
v 3.5 9 0.5
v 4.5 9 0.5
v -4.5 10 2.5
v -3.5 10 2.5
v 3.5 10 2.5
v 4.5 10 2.5
v -4.5 10 1.5
v -3.5 10 1.5
v -2.5 10 1.5
v 2.5 10 1.5
v 3.5 10 1.5
v 4.5 10 1.5
v -2.5 10 0.5
v 2.5 10 0.5
v -10.5 17 1.5
v -5.5 17 1.5
v -3.5 17 1.5
v 3.5 17 1.5
v 5.5 17 1.5
v 10.5 17 1.5
v -10.5 17 0.5
v -5.5 17 0.5
v -3.5 17 0.5
v 3.5 17 0.5
v 5.5 17 0.5
v 10.5 17 0.5
v -4.5 23 1.5
v -3.5 23 1.5
v 3.5 23 1.5
v 4.5 23 1.5
v -4.5 23 0.5
v -3.5 23 0.5
v 3.5 23 0.5
v 4.5 23 0.5
v -5.5 24 1.5
v -4.5 24 1.5
v 4.5 24 1.5
v 5.5 24 1.5
v -5.5 24 0.5
v -4.5 24 0.5
v 4.5 24 0.5
v 5.5 24 0.5
v -3.5 1 -0.5
v -2.5 1 -0.5
v 2.5 1 -0.5
v 3.5 1 -0.5
v -3.5 1 -2.5
v -2.5 1 -2.5
v 2.5 1 -2.5
v 3.5 1 -2.5
v -3.5 2 2.5
v -2.5 2 2.5
v 2.5 2 2.5
v 3.5 2 2.5
v -3.5 2 1.5
v -2.5 2 1.5
v 2.5 2 1.5
v 3.5 2 1.5
v -3.5 4 0.5
v -2.5 4 0.5
v 2.5 4 0.5
v 3.5 4 0.5
v -3.5 4 -0.5
v -2.5 4 -0.5
v 2.5 4 -0.5
v 3.5 4 -0.5
v -4.5 12 2.5
v -3.5 12 2.5
v 3.5 12 2.5
v 4.5 12 2.5
v -3.5 12 1.5
v 3.5 12 1.5
v -4.5 12 0.5
v -3.5 12 0.5
v 3.5 12 0.5
v 4.5 12 0.5
v -10.5 18 1.5
v -5.5 18 1.5
v -3.5 18 1.5
v 3.5 18 1.5
v 5.5 18 1.5
v 10.5 18 1.5
v -10.5 18 0.5
v -5.5 18 0.5
v -3.5 18 0.5
v 3.5 18 0.5
v 5.5 18 0.5
v 10.5 18 0.5
v -5.5 25 1.5
v -4.5 25 1.5
v 4.5 25 1.5
v 5.5 25 1.5
v -5.5 25 0.5
v -4.5 25 0.5
v 4.5 25 0.5
v 5.5 25 0.5
v -4.5 26 1.5
v -3.5 26 1.5
v 3.5 26 1.5
v 4.5 26 1.5
v -4.5 26 0.5
v -3.5 26 0.5
v 3.5 26 0.5
v 4.5 26 0.5
v -3.5 30 1.5
v -2.5 30 1.5
v -0.5 30 1.5
v 0.5 30 1.5
v 2.5 30 1.5
v 3.5 30 1.5
v -3.5 30 0.5
v -2.5 30 0.5
v -0.5 30 0.5
v 0.5 30 0.5
v 2.5 30 0.5
v 3.5 30 0.5
v -2.5 31 1.5
v -0.5 31 1.5
v 0.5 31 1.5
v 2.5 31 1.5
v -2.5 31 0.5
v -0.5 31 0.5
v 0.5 31 0.5
v 2.5 31 0.5

# faces
f 3/5/1 2/5/1 1/5/1
f 4/5/1 2/5/1 3/5/1
f 7/10/1 6/10/1 5/10/1
f 8/10/1 6/10/1 7/10/1
f 12/9/1 10/9/1 9/9/1
f 13/9/1 12/9/1 11/9/1
f 14/9/1 10/9/1 12/9/1
f 14/9/1 12/9/1 13/9/1
f 17/10/1 16/10/1 15/10/1
f 18/10/1 16/10/1 17/10/1
f 21/10/1 20/10/1 19/10/1
f 22/10/1 20/10/1 21/10/1
f 26/2/1 24/2/1 23/2/1
f 27/2/1 24/2/1 26/2/1
f 28/2/1 24/2/1 27/2/1
f 29/8/1 26/8/1 25/8/1
f 30/2/1 27/2/1 26/2/1
f 30/8/1 26/8/1 29/8/1
f 31/2/1 27/2/1 30/2/1
f 32/2/1 27/2/1 31/2/1
f 33/2/1 27/2/1 32/2/1
f 34/7/1 32/7/1 31/7/1
f 35/7/1 32/7/1 34/7/1
f 38/2/1 37/2/1 36/2/1
f 39/2/1 37/2/1 38/2/1
f 40/3/1 39/3/1 38/3/1
f 41/3/1 39/3/1 40/3/1
f 44/2/1 43/2/1 42/2/1
f 45/2/1 43/2/1 44/2/1
f 46/5/1 45/5/1 44/5/1
f 47/5/1 45/5/1 46/5/1
f 48/4/1 47/4/1 46/4/1
f 49/4/1 47/4/1 48/4/1
f 52/10/1 51/10/1 50/10/1
f 53/10/1 51/10/1 52/10/1
f 56/10/1 55/10/1 54/10/1
f 57/10/1 55/10/1 56/10/1
f 60/10/1 59/10/1 58/10/1
f 61/10/1 59/10/1 60/10/1
f 65/2/1 63/2/1 62/2/1
f 66/2/1 63/2/1 65/2/1
f 67/2/1 63/2/1 66/2/1
f 68/8/1 65/8/1 64/8/1
f 69/2/1 66/2/1 65/2/1
f 69/8/1 65/8/1 68/8/1
f 70/2/1 66/2/1 69/2/1
f 71/2/1 66/2/1 70/2/1
f 72/2/1 66/2/1 71/2/1
f 73/7/1 71/7/1 70/7/1
f 74/7/1 71/7/1 73/7/1
f 77/9/1 76/9/1 75/9/1
f 78/9/1 77/9/1 75/9/1
f 79/9/1 77/9/1 78/9/1
f 80/9/2 81/9/2 82/9/2
f 80/9/2 82/9/2 83/9/2
f 83/9/2 82/9/2 84/9/2
f 85/2/2 86/2/2 88/2/2
f 88/2/2 86/2/2 89/2/2
f 89/2/2 86/2/2 90/2/2
f 87/8/2 88/8/2 91/8/2
f 88/2/2 89/2/2 92/2/2
f 91/8/2 88/8/2 92/8/2
f 92/2/2 89/2/2 93/2/2
f 93/2/2 89/2/2 94/2/2
f 94/2/2 89/2/2 95/2/2
f 93/7/2 94/7/2 96/7/2
f 96/7/2 94/7/2 97/7/2
f 98/10/2 99/10/2 100/10/2
f 100/10/2 99/10/2 101/10/2
f 102/10/2 103/10/2 104/10/2
f 104/10/2 103/10/2 105/10/2
f 106/2/2 107/2/2 109/2/2
f 109/2/2 107/2/2 110/2/2
f 110/2/2 107/2/2 111/2/2
f 108/8/2 109/8/2 112/8/2
f 109/2/2 110/2/2 113/2/2
f 112/8/2 109/8/2 113/8/2
f 113/2/2 110/2/2 114/2/2
f 114/2/2 110/2/2 115/2/2
f 115/2/2 110/2/2 116/2/2
f 114/7/2 115/7/2 117/7/2
f 117/7/2 115/7/2 118/7/2
f 119/2/2 120/2/2 121/2/2
f 121/2/2 120/2/2 122/2/2
f 121/3/2 122/3/2 123/3/2
f 123/3/2 122/3/2 124/3/2
f 125/2/2 126/2/2 127/2/2
f 127/2/2 126/2/2 128/2/2
f 127/5/2 128/5/2 129/5/2
f 129/5/2 128/5/2 130/5/2
f 129/4/2 130/4/2 131/4/2
f 131/4/2 130/4/2 132/4/2
f 133/10/2 134/10/2 135/10/2
f 135/10/2 134/10/2 136/10/2
f 137/9/2 138/9/2 140/9/2
f 139/9/2 140/9/2 141/9/2
f 140/9/2 138/9/2 142/9/2
f 141/9/2 140/9/2 142/9/2
f 143/10/2 144/10/2 145/10/2
f 145/10/2 144/10/2 146/10/2
f 147/10/2 148/10/2 149/10/2
f 149/10/2 148/10/2 150/10/2
f 151/10/2 152/10/2 153/10/2
f 153/10/2 152/10/2 154/10/2
f 155/5/2 156/5/2 157/5/2
f 157/5/2 156/5/2 158/5/2
f 163/9/3 160/9/3 159/9/3
f 164/9/3 160/9/3 163/9/3
f 165/8/3 162/8/3 161/8/3
f 166/8/3 162/8/3 165/8/3
f 169/8/3 168/8/3 167/8/3
f 170/8/3 168/8/3 169/8/3
f 173/9/3 172/9/3 171/9/3
f 174/9/3 172/9/3 173/9/3
f 177/5/3 176/5/3 175/5/3
f 178/5/3 176/5/3 177/5/3
f 184/10/3 180/10/3 179/10/3
f 185/10/3 180/10/3 184/10/3
f 191/9/3 182/9/3 181/9/3
f 192/9/3 182/9/3 191/9/3
f 196/6/3 178/6/3 177/6/3
f 197/6/3 178/6/3 196/6/3
f 200/10/3 184/10/3 183/10/3
f 201/6/3 185/6/3 184/6/3
f 201/10/3 184/10/3 200/10/3
f 202/10/3 186/10/3 185/10/3
f 202/6/3 185/6/3 201/6/3
f 203/10/3 186/10/3 202/10/3
f 205/2/3 188/2/3 187/2/3
f 206/2/3 188/2/3 205/2/3
f 207/2/3 190/2/3 189/2/3
f 208/7/3 191/7/3 190/7/3
f 208/2/3 190/2/3 207/2/3
f 208/7/3 192/7/3 191/7/3
f 208/7/3 193/7/3 192/7/3
f 209/7/3 193/7/3 208/7/3
f 210/2/3 195/2/3 194/2/3
f 210/9/3 194/9/3 193/9/3
f 211/3/3 196/3/3 195/3/3
f 211/2/3 195/2/3 210/2/3
f 211/3/3 197/3/3 196/3/3
f 212/3/3 197/3/3 211/3/3
f 213/2/3 198/2/3 197/2/3
f 213/3/3 197/3/3 212/3/3
f 214/5/3 199/5/3 198/5/3
f 214/2/3 198/2/3 213/2/3
f 215/4/3 200/4/3 199/4/3
f 215/5/3 199/5/3 214/5/3
f 216/4/3 200/4/3 215/4/3
f 217/10/3 204/10/3 203/10/3
f 217/10/3 203/10/3 202/10/3
f 218/10/3 204/10/3 217/10/3
f 219/10/3 204/10/3 218/10/3
f 221/9/3 210/9/3 193/9/3
f 221/3/3 212/3/3 211/3/3
f 221/3/3 211/3/3 210/3/3
f 222/3/3 212/3/3 221/3/3
f 223/3/3 212/3/3 222/3/3
f 224/6/3 213/6/3 212/6/3
f 224/3/3 212/3/3 223/3/3
f 224/6/3 214/6/3 213/6/3
f 225/6/3 219/6/3 218/6/3
f 225/1/3 218/1/3 217/1/3
f 226/6/3 219/6/3 225/6/3
f 227/3/3 223/3/3 222/3/3
f 227/6/3 222/6/3 221/6/3
f 228/6/3 224/6/3 223/6/3
f 228/3/3 223/3/3 227/3/3
f 229/10/3 201/10/3 200/10/3
f 229/1/3 202/1/3 201/1/3
f 230/10/3 217/10/3 202/10/3
f 230/1/3 202/1/3 229/1/3
f 231/1/3 226/1/3 225/1/3
f 231/10/3 217/10/3 230/10/3
f 231/1/3 225/1/3 217/1/3
f 232/6/3 219/6/3 226/6/3
f 232/1/3 226/1/3 231/1/3
f 233/10/3 220/10/3 219/10/3
f 233/6/3 219/6/3 232/6/3
f 234/10/3 220/10/3 233/10/3
f 235/6/3 227/6/3 221/6/3
f 235/6/3 228/6/3 227/6/3
f 236/6/3 224/6/3 228/6/3
f 236/6/3 228/6/3 235/6/3
f 237/10/3 230/10/3 229/10/3
f 237/10/3 229/10/3 200/10/3
f 238/1/3 232/1/3 231/1/3
f 238/10/3 230/10/3 237/10/3
f 238/1/3 231/1/3 230/1/3
f 239/10/3 233/10/3 232/10/3
f 239/1/3 232/1/3 238/1/3
f 240/10/3 233/10/3 239/10/3
f 242/9/3 221/9/3 193/9/3
f 242/6/3 235/6/3 221/6/3
f 243/3/3 236/3/3 235/3/3
f 243/6/3 235/6/3 242/6/3
f 244/6/3 224/6/3 236/6/3
f 244/3/3 236/3/3 243/3/3
f 245/6/3 214/6/3 224/6/3
f 245/6/3 224/6/3 244/6/3
f 250/7/3 193/7/3 209/7/3
f 251/3/3 243/3/3 242/3/3
f 251/3/3 244/3/3 243/3/3
f 251/9/3 242/9/3 193/9/3
f 251/3/3 245/3/3 244/3/3
f 252/3/3 245/3/3 251/3/3
f 253/6/3 214/6/3 245/6/3
f 253/3/3 245/3/3 252/3/3
f 254/6/3 214/6/3 253/6/3
f 255/5/3 216/5/3 215/5/3
f 255/6/3 214/6/3 254/6/3
f 255/5/3 215/5/3 214/5/3
f 256/10/3 237/10/3 200/10/3
f 256/1/3 238/1/3 237/1/3
f 256/1/3 239/1/3 238/1/3
f 257/6/3 240/6/3 239/6/3
f 257/1/3 239/1/3 256/1/3
f 258/10/3 241/10/3 240/10/3
f 258/6/3 240/6/3 257/6/3
f 259/10/3 241/10/3 258/10/3
f 260/2/3 247/2/3 246/2/3
f 261/2/3 247/2/3 260/2/3
f 262/2/3 249/2/3 248/2/3
f 263/7/3 250/7/3 249/7/3
f 263/2/3 249/2/3 262/2/3
f 264/7/3 250/7/3 263/7/3
f 265/7/3 193/7/3 250/7/3
f 265/7/3 250/7/3 264/7/3
f 266/9/3 251/9/3 193/9/3
f 266/7/3 193/7/3 265/7/3
f 267/2/3 252/2/3 251/2/3
f 267/9/3 251/9/3 266/9/3
f 268/3/3 254/3/3 253/3/3
f 268/2/3 252/2/3 267/2/3
f 268/3/3 253/3/3 252/3/3
f 269/3/3 254/3/3 268/3/3
f 270/2/3 255/2/3 254/2/3
f 270/3/3 254/3/3 269/3/3
f 271/5/3 216/5/3 255/5/3
f 271/2/3 255/2/3 270/2/3
f 272/4/3 200/4/3 216/4/3
f 272/5/3 216/5/3 271/5/3
f 273/10/3 257/10/3 256/10/3
f 273/4/3 200/4/3 272/4/3
f 273/10/3 256/10/3 200/10/3
f 273/10/3 258/10/3 257/10/3
f 274/10/3 258/10/3 273/10/3
f 275/10/3 258/10/3 274/10/3
f 276/10/3 258/10/3 275/10/3
f 277/10/3 258/10/3 276/10/3
f 278/9/3 265/9/3 264/9/3
f 279/9/3 265/9/3 278/9/3
f 280/10/3 274/10/3 273/10/3
f 281/1/3 275/1/3 274/1/3
f 281/10/3 274/10/3 280/10/3
f 282/10/3 276/10/3 275/10/3
f 282/1/3 275/1/3 281/1/3
f 283/10/3 276/10/3 282/10/3
f 284/6/3 270/6/3 269/6/3
f 285/6/3 270/6/3 284/6/3
f 286/10/3 282/10/3 281/10/3
f 287/10/3 282/10/3 286/10/3
f 288/5/3 285/5/3 284/5/3
f 289/5/3 285/5/3 288/5/3
f 290/5/4 291/5/4 292/5/4
f 292/5/4 291/5/4 293/5/4
f 294/10/4 295/10/4 299/10/4
f 299/10/4 295/10/4 300/10/4
f 296/9/4 297/9/4 303/9/4
f 303/9/4 297/9/4 304/9/4
f 304/9/4 297/9/4 305/9/4
f 292/6/4 293/6/4 307/6/4
f 307/6/4 293/6/4 308/6/4
f 298/10/4 299/10/4 311/10/4
f 299/6/4 300/6/4 312/6/4
f 311/10/4 299/10/4 312/10/4
f 300/10/4 301/10/4 313/10/4
f 312/6/4 300/6/4 313/6/4
f 313/10/4 301/10/4 314/10/4
f 302/7/4 303/7/4 316/7/4
f 303/7/4 304/7/4 316/7/4
f 316/7/4 304/7/4 317/7/4
f 305/2/4 306/2/4 318/2/4
f 304/9/4 305/9/4 318/9/4
f 306/3/4 307/3/4 319/3/4
f 318/2/4 306/2/4 319/2/4
f 307/3/4 308/3/4 319/3/4
f 319/3/4 308/3/4 320/3/4
f 308/2/4 309/2/4 321/2/4
f 320/3/4 308/3/4 321/3/4
f 309/5/4 310/5/4 322/5/4
f 321/2/4 309/2/4 322/2/4
f 310/4/4 311/4/4 323/4/4
f 322/5/4 310/5/4 323/5/4
f 323/4/4 311/4/4 324/4/4
f 314/10/4 315/10/4 325/10/4
f 313/10/4 314/10/4 325/10/4
f 325/10/4 315/10/4 326/10/4
f 326/10/4 315/10/4 327/10/4
f 304/9/4 318/9/4 329/9/4
f 319/3/4 320/3/4 329/3/4
f 318/3/4 319/3/4 329/3/4
f 329/3/4 320/3/4 330/3/4
f 330/3/4 320/3/4 331/3/4
f 320/6/4 321/6/4 332/6/4
f 331/3/4 320/3/4 332/3/4
f 321/6/4 322/6/4 332/6/4
f 326/6/4 327/6/4 333/6/4
f 325/1/4 326/1/4 333/1/4
f 333/6/4 327/6/4 334/6/4
f 330/3/4 331/3/4 335/3/4
f 329/6/4 330/6/4 335/6/4
f 331/6/4 332/6/4 336/6/4
f 335/3/4 331/3/4 336/3/4
f 311/10/4 312/10/4 337/10/4
f 312/1/4 313/1/4 337/1/4
f 313/10/4 325/10/4 338/10/4
f 337/1/4 313/1/4 338/1/4
f 333/1/4 334/1/4 339/1/4
f 338/10/4 325/10/4 339/10/4
f 325/1/4 333/1/4 339/1/4
f 334/6/4 327/6/4 340/6/4
f 339/1/4 334/1/4 340/1/4
f 327/10/4 328/10/4 341/10/4
f 340/6/4 327/6/4 341/6/4
f 341/10/4 328/10/4 342/10/4
f 329/6/4 335/6/4 343/6/4
f 335/6/4 336/6/4 343/6/4
f 336/6/4 332/6/4 344/6/4
f 343/6/4 336/6/4 344/6/4
f 337/10/4 338/10/4 345/10/4
f 311/10/4 337/10/4 345/10/4
f 338/1/4 339/1/4 346/1/4
f 345/10/4 338/10/4 346/10/4
f 339/1/4 340/1/4 346/1/4
f 340/10/4 341/10/4 347/10/4
f 346/1/4 340/1/4 347/1/4
f 347/10/4 341/10/4 348/10/4
f 329/6/4 343/6/4 350/6/4
f 304/9/4 329/9/4 350/9/4
f 343/3/4 344/3/4 351/3/4
f 350/6/4 343/6/4 351/6/4
f 344/6/4 332/6/4 352/6/4
f 351/3/4 344/3/4 352/3/4
f 332/6/4 322/6/4 353/6/4
f 352/6/4 332/6/4 353/6/4
f 317/7/4 304/7/4 355/7/4
f 350/3/4 351/3/4 356/3/4
f 351/3/4 352/3/4 356/3/4
f 304/9/4 350/9/4 356/9/4
f 352/3/4 353/3/4 356/3/4
f 356/3/4 353/3/4 357/3/4
f 353/6/4 322/6/4 358/6/4
f 357/3/4 353/3/4 358/3/4
f 358/6/4 322/6/4 359/6/4
f 323/5/4 324/5/4 360/5/4
f 359/6/4 322/6/4 360/6/4
f 322/5/4 323/5/4 360/5/4
f 311/10/4 345/10/4 361/10/4
f 345/1/4 346/1/4 361/1/4
f 346/1/4 347/1/4 361/1/4
f 347/6/4 348/6/4 362/6/4
f 361/1/4 347/1/4 362/1/4
f 348/10/4 349/10/4 363/10/4
f 362/6/4 348/6/4 363/6/4
f 363/10/4 349/10/4 364/10/4
f 354/7/4 355/7/4 365/7/4
f 365/7/4 355/7/4 366/7/4
f 355/7/4 304/7/4 367/7/4
f 366/7/4 355/7/4 367/7/4
f 304/9/4 356/9/4 367/9/4
f 356/2/4 357/2/4 368/2/4
f 367/9/4 356/9/4 368/9/4
f 358/3/4 359/3/4 369/3/4
f 368/2/4 357/2/4 369/2/4
f 357/3/4 358/3/4 369/3/4
f 369/3/4 359/3/4 370/3/4
f 359/2/4 360/2/4 371/2/4
f 370/3/4 359/3/4 371/3/4
f 360/5/4 324/5/4 372/5/4
f 371/2/4 360/2/4 372/2/4
f 324/4/4 311/4/4 373/4/4
f 372/5/4 324/5/4 373/5/4
f 361/10/4 362/10/4 374/10/4
f 373/4/4 311/4/4 374/4/4
f 311/10/4 361/10/4 374/10/4
f 362/10/4 363/10/4 374/10/4
f 374/10/4 363/10/4 375/10/4
f 375/10/4 363/10/4 376/10/4
f 376/10/4 363/10/4 377/10/4
f 377/10/4 363/10/4 378/10/4
f 366/9/4 367/9/4 379/9/4
f 367/9/4 368/9/4 379/9/4
f 379/9/4 368/9/4 380/9/4
f 374/10/4 375/10/4 381/10/4
f 375/1/4 376/1/4 382/1/4
f 381/10/4 375/10/4 382/10/4
f 376/10/4 377/10/4 383/10/4
f 382/1/4 376/1/4 383/1/4
f 383/10/4 377/10/4 384/10/4
f 370/6/4 371/6/4 385/6/4
f 385/6/4 371/6/4 386/6/4
f 382/10/4 383/10/4 387/10/4
f 387/10/4 383/10/4 388/10/4
f 385/5/4 386/5/4 389/5/4
f 389/5/4 386/5/4 390/5/4
f 391/2/4 392/2/4 393/2/4
f 393/2/4 392/2/4 394/2/4
f 395/2/4 396/2/4 397/2/4
f 397/2/4 396/2/4 398/2/4
f 399/2/4 400/2/4 401/2/4
f 401/2/4 400/2/4 402/2/4
f 403/2/4 404/2/4 405/2/4
f 405/2/4 404/2/4 406/2/4
f 411/2/5 408/2/5 407/2/5
f 412/2/5 408/2/5 411/2/5
f 413/2/5 410/2/5 409/2/5
f 414/2/5 410/2/5 413/2/5
f 419/8/5 416/8/5 415/8/5
f 420/8/5 416/8/5 419/8/5
f 421/8/5 418/8/5 417/8/5
f 422/8/5 418/8/5 421/8/5
f 427/9/5 424/9/5 423/9/5
f 428/9/5 424/9/5 427/9/5
f 429/9/5 426/9/5 425/9/5
f 430/9/5 426/9/5 429/9/5
f 435/9/5 432/9/5 431/9/5
f 436/9/5 432/9/5 435/9/5
f 439/9/5 434/9/5 433/9/5
f 440/9/5 434/9/5 439/9/5
f 441/7/5 438/7/5 437/7/5
f 442/7/5 438/7/5 441/7/5
f 449/5/5 444/5/5 443/5/5
f 450/6/5 445/6/5 444/6/5
f 450/5/5 444/5/5 449/5/5
f 451/6/5 445/6/5 450/6/5
f 452/6/5 447/6/5 446/6/5
f 453/5/5 448/5/5 447/5/5
f 453/6/5 447/6/5 452/6/5
f 454/5/5 448/5/5 453/5/5
f 459/10/5 456/10/5 455/10/5
f 460/10/5 456/10/5 459/10/5
f 461/10/5 458/10/5 457/10/5
f 462/10/5 458/10/5 461/10/5
f 467/10/5 464/10/5 463/10/5
f 468/10/5 464/10/5 467/10/5
f 469/10/5 466/10/5 465/10/5
f 470/10/5 466/10/5 469/10/5
f 471/2/6 472/2/6 475/2/6
f 475/2/6 472/2/6 476/2/6
f 473/2/6 474/2/6 477/2/6
f 477/2/6 474/2/6 478/2/6
f 479/8/6 480/8/6 483/8/6
f 483/8/6 480/8/6 484/8/6
f 481/8/6 482/8/6 485/8/6
f 485/8/6 482/8/6 486/8/6
f 487/2/6 488/2/6 491/2/6
f 491/2/6 488/2/6 492/2/6
f 489/2/6 490/2/6 493/2/6
f 493/2/6 490/2/6 494/2/6
f 495/9/6 496/9/6 499/9/6
f 497/9/6 498/9/6 500/9/6
f 495/9/6 499/9/6 501/9/6
f 501/9/6 499/9/6 502/9/6
f 500/9/6 498/9/6 503/9/6
f 503/9/6 498/9/6 504/9/6
f 505/5/6 506/5/6 511/5/6
f 506/6/6 507/6/6 512/6/6
f 511/5/6 506/5/6 512/5/6
f 512/6/6 507/6/6 513/6/6
f 508/6/6 509/6/6 514/6/6
f 509/5/6 510/5/6 515/5/6
f 514/6/6 509/6/6 515/6/6
f 515/5/6 510/5/6 516/5/6
f 517/10/6 518/10/6 521/10/6
f 521/10/6 518/10/6 522/10/6
f 519/10/6 520/10/6 523/10/6
f 523/10/6 520/10/6 524/10/6
f 525/10/6 526/10/6 529/10/6
f 529/10/6 526/10/6 530/10/6
f 527/10/6 528/10/6 531/10/6
f 531/10/6 528/10/6 532/10/6
f 533/10/6 534/10/6 539/10/6
f 539/10/6 534/10/6 540/10/6
f 535/10/6 536/10/6 541/10/6
f 541/10/6 536/10/6 542/10/6
f 537/10/6 538/10/6 543/10/6
f 543/10/6 538/10/6 544/10/6
f 545/10/6 546/10/6 549/10/6
f 549/10/6 546/10/6 550/10/6
f 547/10/6 548/10/6 551/10/6
f 551/10/6 548/10/6 552/10/6
