# MagicaVoxel @ Ephtracy

# group
g thug_v1

# material
mtllib thug_v1.mtl
usemtl palette

# normals
vn -1 0 0
vn 1 0 0
vn 0 0 1
vn 0 0 -1
vn 0 -1 0
vn 0 1 0

# texcoords
vt 0.0527344 0.5
vt 0.0878906 0.5
vt 0.111328 0.5
vt 0.158203 0.5
vt 0.271484 0.5
vt 0.279297 0.5
vt 0.361328 0.5
vt 0.392578 0.5
vt 0.720703 0.5
vt 0.900391 0.5
vt 0.919922 0.5
vt 0.978516 0.5
vt 0.994141 0.5

# verts
v -10.5 17 -0.5
v -10.5 17 -1.5
v -10.5 18 -0.5
v -10.5 18 -1.5
v -5.5 24 -0.5
v -5.5 24 -1.5
v -5.5 25 -0.5
v -5.5 25 -1.5
v -4.5 9 -0.5
v -4.5 9 -1.5
v -4.5 10 -1.5
v -4.5 10 -2.5
v -4.5 12 -0.5
v -4.5 12 -2.5
v -4.5 23 -0.5
v -4.5 23 -1.5
v -4.5 24 -0.5
v -4.5 24 -1.5
v -4.5 25 -0.5
v -4.5 25 -1.5
v -4.5 26 -0.5
v -4.5 26 -1.5
v -3.5 0 2.5
v -3.5 0 -1.5
v -3.5 1 2.5
v -3.5 1 0.5
v -3.5 1 -1.5
v -3.5 1 -2.5
v -3.5 2 -1.5
v -3.5 2 -2.5
v -3.5 4 0.5
v -3.5 4 -0.5
v -3.5 4 -1.5
v -3.5 9 -0.5
v -3.5 9 -1.5
v -3.5 12 -0.5
v -3.5 12 -1.5
v -3.5 13 -0.5
v -3.5 13 -1.5
v -3.5 17 -0.5
v -3.5 17 -1.5
v -3.5 18 -0.5
v -3.5 18 -1.5
v -3.5 19 -0.5
v -3.5 19 -1.5
v -3.5 22 -0.5
v -3.5 22 -1.5
v -3.5 23 -0.5
v -3.5 23 -1.5
v -3.5 26 -0.5
v -3.5 26 -1.5
v -3.5 28 -0.5
v -3.5 28 -1.5
v -2.5 28 -0.5
v -2.5 28 -1.5
v -2.5 29 -0.5
v -2.5 29 -1.5
v -0.5 28 -0.5
v -0.5 28 -1.5
v -0.5 29 -0.5
v -0.5 29 -1.5
v 2.5 0 2.5
v 2.5 0 -1.5
v 2.5 1 2.5
v 2.5 1 0.5
v 2.5 1 -1.5
v 2.5 1 -2.5
v 2.5 2 -1.5
v 2.5 2 -2.5
v 2.5 4 0.5
v 2.5 4 -0.5
v 2.5 4 -1.5
v 2.5 10 -0.5
v 2.5 10 -1.5
v 3.5 10 -1.5
v 3.5 10 -2.5
v 3.5 11 -1.5
v 3.5 12 -1.5
v 3.5 12 -2.5
v 3.5 13 -1.5
v 3.5 13 -2.5
v -3.5 10 -1.5
v -3.5 10 -2.5
v -3.5 11 -1.5
v -3.5 12 -1.5
v -3.5 12 -2.5
v -2.5 0 2.5
v -2.5 0 -1.5
v -2.5 1 2.5
v -2.5 1 0.5
v -2.5 1 -1.5
v -2.5 1 -2.5
v -2.5 2 -1.5
v -2.5 2 -2.5
v -2.5 4 0.5
v -2.5 4 -0.5
v -2.5 4 -1.5
v -2.5 10 -0.5
v -2.5 10 -1.5
v -1.5 28 -0.5
v -1.5 28 -1.5
v -1.5 29 -0.5
v -1.5 29 -1.5
v 1.5 28 -0.5
v 1.5 28 -1.5
v 1.5 29 -0.5
v 1.5 29 -1.5
v 2.5 26 -0.5
v 2.5 26 -1.5
v 2.5 28 -0.5
v 2.5 28 -1.5
v 3.5 0 2.5
v 3.5 0 -1.5
v 3.5 1 2.5
v 3.5 1 0.5
v 3.5 1 -1.5
v 3.5 1 -2.5
v 3.5 2 -1.5
v 3.5 2 -2.5
v 3.5 4 0.5
v 3.5 4 -0.5
v 3.5 4 -1.5
v 3.5 9 -0.5
v 3.5 9 -1.5
v 3.5 13 -0.5
v 3.5 13 -1.5
v 3.5 17 -0.5
v 3.5 17 -1.5
v 3.5 18 -0.5
v 3.5 18 -1.5
v 3.5 19 -0.5
v 3.5 19 -1.5
v 3.5 21 -0.5
v 3.5 21 -1.5
v 3.5 23 -0.5
v 3.5 23 -1.5
v 4.5 9 -0.5
v 4.5 9 -1.5
v 4.5 10 -1.5
v 4.5 10 -2.5
v 4.5 12 -0.5
v 4.5 12 -1.5
v 4.5 12 -2.5
v 4.5 13 -0.5
v 4.5 13 -1.5
v 4.5 13 -2.5
v 4.5 23 -0.5
v 4.5 23 -1.5
v 4.5 24 -0.5
v 4.5 24 -1.5
v 4.5 25 -0.5
v 4.5 25 -1.5
v 4.5 26 -0.5
v 4.5 26 -1.5
v 5.5 24 -0.5
v 5.5 24 -1.5
v 5.5 25 -0.5
v 5.5 25 -1.5
v 10.5 17 -0.5
v 10.5 17 -1.5
v 10.5 18 -0.5
v 10.5 18 -1.5
v -3.5 0 2.5
v -3.5 1 2.5
v -2.5 0 2.5
v -2.5 1 2.5
v 2.5 0 2.5
v 2.5 1 2.5
v 3.5 0 2.5
v 3.5 1 2.5
v -3.5 1 0.5
v -3.5 4 0.5
v -2.5 1 0.5
v -2.5 4 0.5
v 2.5 1 0.5
v 2.5 4 0.5
v 3.5 1 0.5
v 3.5 4 0.5
v -10.5 17 -0.5
v -10.5 18 -0.5
v -5.5 17 -0.5
v -5.5 18 -0.5
v -5.5 24 -0.5
v -5.5 25 -0.5
v -4.5 9 -0.5
v -4.5 12 -0.5
v -4.5 23 -0.5
v -4.5 24 -0.5
v -4.5 25 -0.5
v -4.5 26 -0.5
v -3.5 4 -0.5
v -3.5 9 -0.5
v -3.5 11 -0.5
v -3.5 12 -0.5
v -3.5 13 -0.5
v -3.5 17 -0.5
v -3.5 18 -0.5
v -3.5 19 -0.5
v -3.5 22 -0.5
v -3.5 23 -0.5
v -3.5 24 -0.5
v -3.5 25 -0.5
v -3.5 26 -0.5
v -3.5 28 -0.5
v -2.5 4 -0.5
v -2.5 10 -0.5
v -2.5 16 -0.5
v -2.5 17 -0.5
v -2.5 19 -0.5
v -2.5 24 -0.5
v -2.5 28 -0.5
v -2.5 29 -0.5
v -1.5 11 -0.5
v -1.5 12 -0.5
v -1.5 13 -0.5
v -1.5 16 -0.5
v -1.5 17 -0.5
v -1.5 19 -0.5
v -1.5 21 -0.5
v -1.5 27 -0.5
v -1.5 28 -0.5
v -1.5 29 -0.5
v -0.5 13 -0.5
v -0.5 16 -0.5
v -0.5 19 -0.5
v -0.5 20 -0.5
v -0.5 24 -0.5
v -0.5 25 -0.5
v -0.5 27 -0.5
v -0.5 28 -0.5
v -0.5 29 -0.5
v 0.5 13 -0.5
v 0.5 16 -0.5
v 0.5 19 -0.5
v 0.5 20 -0.5
v 0.5 24 -0.5
v 0.5 25 -0.5
v 0.5 26 -0.5
v 0.5 27 -0.5
v 1.5 11 -0.5
v 1.5 12 -0.5
v 1.5 13 -0.5
v 1.5 16 -0.5
v 1.5 17 -0.5
v 1.5 19 -0.5
v 1.5 21 -0.5
v 1.5 26 -0.5
v 1.5 28 -0.5
v 1.5 29 -0.5
v 2.5 4 -0.5
v 2.5 10 -0.5
v 2.5 16 -0.5
v 2.5 17 -0.5
v 2.5 19 -0.5
v 2.5 21 -0.5
v 2.5 22 -0.5
v 2.5 26 -0.5
v 2.5 28 -0.5
v 3.5 4 -0.5
v 3.5 9 -0.5
v 3.5 11 -0.5
v 3.5 12 -0.5
v 3.5 13 -0.5
v 3.5 17 -0.5
v 3.5 18 -0.5
v 3.5 19 -0.5
v 3.5 21 -0.5
v 3.5 23 -0.5
v 3.5 24 -0.5
v 3.5 25 -0.5
v 4.5 9 -0.5
v 4.5 12 -0.5
v 4.5 13 -0.5
v 4.5 23 -0.5
v 4.5 24 -0.5
v 4.5 25 -0.5
v 4.5 26 -0.5
v 5.5 17 -0.5
v 5.5 18 -0.5
v 5.5 24 -0.5
v 5.5 25 -0.5
v 10.5 17 -0.5
v 10.5 18 -0.5
v -10.5 17 -1.5
v -10.5 18 -1.5
v -5.5 17 -1.5
v -5.5 18 -1.5
v -5.5 24 -1.5
v -5.5 25 -1.5
v -4.5 9 -1.5
v -4.5 10 -1.5
v -4.5 23 -1.5
v -4.5 24 -1.5
v -4.5 25 -1.5
v -4.5 26 -1.5
v -3.5 0 -1.5
v -3.5 1 -1.5
v -3.5 2 -1.5
v -3.5 4 -1.5
v -3.5 9 -1.5
v -3.5 10 -1.5
v -3.5 11 -1.5
v -3.5 12 -1.5
v -3.5 13 -1.5
v -3.5 17 -1.5
v -3.5 18 -1.5
v -3.5 19 -1.5
v -3.5 22 -1.5
v -3.5 23 -1.5
v -3.5 24 -1.5
v -3.5 25 -1.5
v -3.5 26 -1.5
v -3.5 28 -1.5
v -2.5 0 -1.5
v -2.5 1 -1.5
v -2.5 2 -1.5
v -2.5 4 -1.5
v -2.5 10 -1.5
v -2.5 16 -1.5
v -2.5 17 -1.5
v -2.5 19 -1.5
v -2.5 24 -1.5
v -2.5 28 -1.5
v -2.5 29 -1.5
v -1.5 11 -1.5
v -1.5 12 -1.5
v -1.5 13 -1.5
v -1.5 16 -1.5
v -1.5 17 -1.5
v -1.5 19 -1.5
v -1.5 21 -1.5
v -1.5 27 -1.5
v -1.5 28 -1.5
v -1.5 29 -1.5
v -0.5 13 -1.5
v -0.5 16 -1.5
v -0.5 19 -1.5
v -0.5 20 -1.5
v -0.5 24 -1.5
v -0.5 25 -1.5
v -0.5 27 -1.5
v -0.5 28 -1.5
v -0.5 29 -1.5
v 0.5 13 -1.5
v 0.5 16 -1.5
v 0.5 19 -1.5
v 0.5 20 -1.5
v 0.5 24 -1.5
v 0.5 25 -1.5
v 0.5 26 -1.5
v 0.5 27 -1.5
v 1.5 11 -1.5
v 1.5 12 -1.5
v 1.5 13 -1.5
v 1.5 16 -1.5
v 1.5 17 -1.5
v 1.5 19 -1.5
v 1.5 21 -1.5
v 1.5 26 -1.5
v 1.5 28 -1.5
v 1.5 29 -1.5
v 2.5 0 -1.5
v 2.5 1 -1.5
v 2.5 2 -1.5
v 2.5 4 -1.5
v 2.5 10 -1.5
v 2.5 16 -1.5
v 2.5 17 -1.5
v 2.5 19 -1.5
v 2.5 21 -1.5
v 2.5 22 -1.5
v 2.5 26 -1.5
v 2.5 28 -1.5
v 3.5 0 -1.5
v 3.5 1 -1.5
v 3.5 2 -1.5
v 3.5 4 -1.5
v 3.5 9 -1.5
v 3.5 10 -1.5
v 3.5 11 -1.5
v 3.5 12 -1.5
v 3.5 13 -1.5
v 3.5 17 -1.5
v 3.5 18 -1.5
v 3.5 19 -1.5
v 3.5 21 -1.5
v 3.5 23 -1.5
v 3.5 24 -1.5
v 3.5 25 -1.5
v 4.5 9 -1.5
v 4.5 10 -1.5
v 4.5 23 -1.5
v 4.5 24 -1.5
v 4.5 25 -1.5
v 4.5 26 -1.5
v 5.5 17 -1.5
v 5.5 18 -1.5
v 5.5 24 -1.5
v 5.5 25 -1.5
v 10.5 17 -1.5
v 10.5 18 -1.5
v -4.5 10 -2.5
v -4.5 12 -2.5
v -3.5 1 -2.5
v -3.5 2 -2.5
v -3.5 10 -2.5
v -3.5 12 -2.5
v -2.5 1 -2.5
v -2.5 2 -2.5
v 2.5 1 -2.5
v 2.5 2 -2.5
v 3.5 1 -2.5
v 3.5 2 -2.5
v 3.5 10 -2.5
v 3.5 12 -2.5
v 3.5 13 -2.5
v 4.5 10 -2.5
v 4.5 12 -2.5
v 4.5 13 -2.5
v -3.5 0 2.5
v -2.5 0 2.5
v 2.5 0 2.5
v 3.5 0 2.5
v -3.5 0 -1.5
v -2.5 0 -1.5
v 2.5 0 -1.5
v 3.5 0 -1.5
v -3.5 1 -1.5
v -2.5 1 -1.5
v 2.5 1 -1.5
v 3.5 1 -1.5
v -3.5 1 -2.5
v -2.5 1 -2.5
v 2.5 1 -2.5
v 3.5 1 -2.5
v -4.5 9 -0.5
v -3.5 9 -0.5
v 3.5 9 -0.5
v 4.5 9 -0.5
v -4.5 9 -1.5
v -3.5 9 -1.5
v 3.5 9 -1.5
v 4.5 9 -1.5
v -2.5 10 -0.5
v 2.5 10 -0.5
v -4.5 10 -1.5
v -3.5 10 -1.5
v -2.5 10 -1.5
v 2.5 10 -1.5
v 3.5 10 -1.5
v 4.5 10 -1.5
v -4.5 10 -2.5
v -3.5 10 -2.5
v 3.5 10 -2.5
v 4.5 10 -2.5
v -10.5 17 -0.5
v -5.5 17 -0.5
v -3.5 17 -0.5
v 3.5 17 -0.5
v 5.5 17 -0.5
v 10.5 17 -0.5
v -10.5 17 -1.5
v -5.5 17 -1.5
v -3.5 17 -1.5
v 3.5 17 -1.5
v 5.5 17 -1.5
v 10.5 17 -1.5
v -4.5 23 -0.5
v -3.5 23 -0.5
v 3.5 23 -0.5
v 4.5 23 -0.5
v -4.5 23 -1.5
v -3.5 23 -1.5
v 3.5 23 -1.5
v 4.5 23 -1.5
v -5.5 24 -0.5
v -4.5 24 -0.5
v 4.5 24 -0.5
v 5.5 24 -0.5
v -5.5 24 -1.5
v -4.5 24 -1.5
v 4.5 24 -1.5
v 5.5 24 -1.5
v -3.5 1 2.5
v -2.5 1 2.5
v 2.5 1 2.5
v 3.5 1 2.5
v -3.5 1 0.5
v -2.5 1 0.5
v 2.5 1 0.5
v 3.5 1 0.5
v -3.5 2 -1.5
v -2.5 2 -1.5
v 2.5 2 -1.5
v 3.5 2 -1.5
v -3.5 2 -2.5
v -2.5 2 -2.5
v 2.5 2 -2.5
v 3.5 2 -2.5
v -3.5 4 0.5
v -2.5 4 0.5
v 2.5 4 0.5
v 3.5 4 0.5
v -3.5 4 -0.5
v -2.5 4 -0.5
v 2.5 4 -0.5
v 3.5 4 -0.5
v -4.5 12 -0.5
v -3.5 12 -0.5
v -3.5 12 -1.5
v -4.5 12 -2.5
v -3.5 12 -2.5
v 3.5 13 -0.5
v 4.5 13 -0.5
v 3.5 13 -1.5
v 4.5 13 -1.5
v 3.5 13 -2.5
v 4.5 13 -2.5
v -10.5 18 -0.5
v -5.5 18 -0.5
v -3.5 18 -0.5
v 3.5 18 -0.5
v 5.5 18 -0.5
v 10.5 18 -0.5
v -10.5 18 -1.5
v -5.5 18 -1.5
v -3.5 18 -1.5
v 3.5 18 -1.5
v 5.5 18 -1.5
v 10.5 18 -1.5
v -5.5 25 -0.5
v -4.5 25 -0.5
v 4.5 25 -0.5
v 5.5 25 -0.5
v -5.5 25 -1.5
v -4.5 25 -1.5
v 4.5 25 -1.5
v 5.5 25 -1.5
v -4.5 26 -0.5
v -3.5 26 -0.5
v 2.5 26 -0.5
v 4.5 26 -0.5
v -4.5 26 -1.5
v -3.5 26 -1.5
v 2.5 26 -1.5
v 4.5 26 -1.5
v -3.5 28 -0.5
v -2.5 28 -0.5
v -1.5 28 -0.5
v -0.5 28 -0.5
v 1.5 28 -0.5
v 2.5 28 -0.5
v -3.5 28 -1.5
v -2.5 28 -1.5
v -1.5 28 -1.5
v -0.5 28 -1.5
v 1.5 28 -1.5
v 2.5 28 -1.5
v -2.5 29 -0.5
v -1.5 29 -0.5
v -0.5 29 -0.5
v 1.5 29 -0.5
v -2.5 29 -1.5
v -1.5 29 -1.5
v -0.5 29 -1.5
v 1.5 29 -1.5

# faces
f 3/8/1 2/8/1 1/8/1
f 4/8/1 2/8/1 3/8/1
f 7/3/1 6/3/1 5/3/1
f 8/3/1 6/3/1 7/3/1
f 11/5/1 10/5/1 9/5/1
f 13/5/1 11/5/1 9/5/1
f 13/5/1 12/5/1 11/5/1
f 14/5/1 12/5/1 13/5/1
f 17/3/1 16/3/1 15/3/1
f 18/3/1 16/3/1 17/3/1
f 21/3/1 20/3/1 19/3/1
f 22/3/1 20/3/1 21/3/1
f 25/4/1 24/4/1 23/4/1
f 26/4/1 24/4/1 25/4/1
f 27/4/1 24/4/1 26/4/1
f 29/11/1 28/11/1 27/11/1
f 29/4/1 27/4/1 26/4/1
f 30/11/1 28/11/1 29/11/1
f 31/4/1 29/4/1 26/4/1
f 32/4/1 29/4/1 31/4/1
f 33/4/1 29/4/1 32/4/1
f 34/9/1 33/9/1 32/9/1
f 35/9/1 33/9/1 34/9/1
f 38/10/1 37/10/1 36/10/1
f 39/10/1 37/10/1 38/10/1
f 40/2/1 39/2/1 38/2/1
f 41/2/1 39/2/1 40/2/1
f 44/10/1 43/10/1 42/10/1
f 45/10/1 43/10/1 44/10/1
f 46/8/1 45/8/1 44/8/1
f 47/8/1 45/8/1 46/8/1
f 48/7/1 47/7/1 46/7/1
f 49/7/1 47/7/1 48/7/1
f 52/3/1 51/3/1 50/3/1
f 53/3/1 51/3/1 52/3/1
f 56/3/1 55/3/1 54/3/1
f 57/3/1 55/3/1 56/3/1
f 60/3/1 59/3/1 58/3/1
f 61/3/1 59/3/1 60/3/1
f 64/4/1 63/4/1 62/4/1
f 65/4/1 63/4/1 64/4/1
f 66/4/1 63/4/1 65/4/1
f 68/11/1 67/11/1 66/11/1
f 68/4/1 66/4/1 65/4/1
f 69/11/1 67/11/1 68/11/1
f 70/4/1 68/4/1 65/4/1
f 71/4/1 68/4/1 70/4/1
f 72/4/1 68/4/1 71/4/1
f 73/9/1 72/9/1 71/9/1
f 74/9/1 72/9/1 73/9/1
f 77/5/1 76/5/1 75/5/1
f 78/5/1 76/5/1 77/5/1
f 79/5/1 76/5/1 78/5/1
f 80/13/1 79/13/1 78/13/1
f 81/13/1 79/13/1 80/13/1
f 82/5/2 83/5/2 84/5/2
f 84/5/2 83/5/2 85/5/2
f 85/5/2 83/5/2 86/5/2
f 87/4/2 88/4/2 89/4/2
f 89/4/2 88/4/2 90/4/2
f 90/4/2 88/4/2 91/4/2
f 91/11/2 92/11/2 93/11/2
f 90/4/2 91/4/2 93/4/2
f 93/11/2 92/11/2 94/11/2
f 90/4/2 93/4/2 95/4/2
f 95/4/2 93/4/2 96/4/2
f 96/4/2 93/4/2 97/4/2
f 96/9/2 97/9/2 98/9/2
f 98/9/2 97/9/2 99/9/2
f 100/3/2 101/3/2 102/3/2
f 102/3/2 101/3/2 103/3/2
f 104/3/2 105/3/2 106/3/2
f 106/3/2 105/3/2 107/3/2
f 108/3/2 109/3/2 110/3/2
f 110/3/2 109/3/2 111/3/2
f 112/4/2 113/4/2 114/4/2
f 114/4/2 113/4/2 115/4/2
f 115/4/2 113/4/2 116/4/2
f 116/11/2 117/11/2 118/11/2
f 115/4/2 116/4/2 118/4/2
f 118/11/2 117/11/2 119/11/2
f 115/4/2 118/4/2 120/4/2
f 120/4/2 118/4/2 121/4/2
f 121/4/2 118/4/2 122/4/2
f 121/9/2 122/9/2 123/9/2
f 123/9/2 122/9/2 124/9/2
f 125/2/2 126/2/2 127/2/2
f 127/2/2 126/2/2 128/2/2
f 129/10/2 130/10/2 131/10/2
f 131/10/2 130/10/2 132/10/2
f 131/8/2 132/8/2 133/8/2
f 133/8/2 132/8/2 134/8/2
f 133/7/2 134/7/2 135/7/2
f 135/7/2 134/7/2 136/7/2
f 137/5/2 138/5/2 139/5/2
f 137/5/2 139/5/2 141/5/2
f 139/5/2 140/5/2 141/5/2
f 141/5/2 140/5/2 142/5/2
f 142/5/2 140/5/2 143/5/2
f 141/12/2 142/12/2 144/12/2
f 142/13/2 143/13/2 145/13/2
f 144/12/2 142/12/2 145/12/2
f 145/13/2 143/13/2 146/13/2
f 147/3/2 148/3/2 149/3/2
f 149/3/2 148/3/2 150/3/2
f 151/3/2 152/3/2 153/3/2
f 153/3/2 152/3/2 154/3/2
f 155/3/2 156/3/2 157/3/2
f 157/3/2 156/3/2 158/3/2
f 159/8/2 160/8/2 161/8/2
f 161/8/2 160/8/2 162/8/2
f 165/4/3 164/4/3 163/4/3
f 166/4/3 164/4/3 165/4/3
f 169/4/3 168/4/3 167/4/3
f 170/4/3 168/4/3 169/4/3
f 173/4/3 172/4/3 171/4/3
f 174/4/3 172/4/3 173/4/3
f 177/4/3 176/4/3 175/4/3
f 178/4/3 176/4/3 177/4/3
f 181/8/3 180/8/3 179/8/3
f 182/8/3 180/8/3 181/8/3
f 188/3/3 184/3/3 183/3/3
f 189/3/3 184/3/3 188/3/3
f 192/5/3 186/5/3 185/5/3
f 193/5/3 186/5/3 192/5/3
f 194/5/3 186/5/3 193/5/3
f 196/1/3 182/1/3 181/1/3
f 197/1/3 182/1/3 196/1/3
f 200/3/3 188/3/3 187/3/3
f 201/5/3 189/5/3 188/5/3
f 201/3/3 188/3/3 200/3/3
f 202/3/3 190/3/3 189/3/3
f 202/5/3 189/5/3 201/5/3
f 203/3/3 190/3/3 202/3/3
f 205/9/3 192/9/3 191/9/3
f 205/9/3 193/9/3 192/9/3
f 206/9/3 193/9/3 205/9/3
f 207/2/3 196/2/3 195/2/3
f 208/10/3 197/10/3 196/10/3
f 208/2/3 196/2/3 207/2/3
f 208/10/3 198/10/3 197/10/3
f 209/8/3 199/8/3 198/8/3
f 209/10/3 198/10/3 208/10/3
f 210/3/3 201/3/3 200/3/3
f 210/3/3 204/3/3 203/3/3
f 210/3/3 203/3/3 202/3/3
f 210/3/3 202/3/3 201/3/3
f 211/3/3 204/3/3 210/3/3
f 213/5/3 194/5/3 193/5/3
f 213/9/3 193/9/3 206/9/3
f 214/10/3 195/10/3 194/10/3
f 214/5/3 194/5/3 213/5/3
f 215/2/3 207/2/3 195/2/3
f 215/10/3 195/10/3 214/10/3
f 216/10/3 208/10/3 207/10/3
f 216/2/3 207/2/3 215/2/3
f 217/1/3 209/1/3 208/1/3
f 217/10/3 208/10/3 216/10/3
f 218/8/3 199/8/3 209/8/3
f 218/1/3 209/1/3 217/1/3
f 219/8/3 199/8/3 218/8/3
f 220/5/3 211/5/3 210/5/3
f 221/3/3 212/3/3 211/3/3
f 221/5/3 211/5/3 220/5/3
f 222/3/3 212/3/3 221/3/3
f 223/1/3 215/1/3 214/1/3
f 223/10/3 216/10/3 215/10/3
f 224/1/3 217/1/3 216/1/3
f 224/10/3 216/10/3 223/10/3
f 224/1/3 218/1/3 217/1/3
f 225/13/3 219/13/3 218/13/3
f 225/1/3 218/1/3 224/1/3
f 226/13/3 219/13/3 225/13/3
f 227/5/3 220/5/3 210/5/3
f 227/3/3 210/3/3 200/3/3
f 228/5/3 220/5/3 227/5/3
f 229/3/3 221/3/3 220/3/3
f 229/5/3 220/5/3 228/5/3
f 230/3/3 221/3/3 229/3/3
f 232/1/3 223/1/3 214/1/3
f 232/1/3 224/1/3 223/1/3
f 232/1/3 225/1/3 224/1/3
f 233/1/3 225/1/3 232/1/3
f 234/8/3 226/8/3 225/8/3
f 234/1/3 225/1/3 233/1/3
f 235/13/3 219/13/3 226/13/3
f 235/8/3 226/8/3 234/8/3
f 236/3/3 228/3/3 227/3/3
f 236/3/3 227/3/3 200/3/3
f 237/5/3 229/5/3 228/5/3
f 237/3/3 228/3/3 236/3/3
f 238/5/3 229/5/3 237/5/3
f 239/6/3 230/6/3 229/6/3
f 239/5/3 229/5/3 238/5/3
f 240/9/3 213/9/3 206/9/3
f 240/12/3 214/12/3 213/12/3
f 241/1/3 232/1/3 214/1/3
f 241/12/3 214/12/3 240/12/3
f 242/10/3 233/10/3 232/10/3
f 242/1/3 232/1/3 241/1/3
f 243/1/3 234/1/3 233/1/3
f 243/10/3 233/10/3 242/10/3
f 244/1/3 234/1/3 243/1/3
f 245/13/3 235/13/3 234/13/3
f 245/1/3 234/1/3 244/1/3
f 246/13/3 219/13/3 235/13/3
f 246/13/3 235/13/3 245/13/3
f 246/8/3 199/8/3 219/8/3
f 247/6/3 239/6/3 238/6/3
f 247/3/3 238/3/3 237/3/3
f 248/6/3 230/6/3 239/6/3
f 248/6/3 239/6/3 247/6/3
f 248/3/3 231/3/3 230/3/3
f 249/3/3 231/3/3 248/3/3
f 251/9/3 240/9/3 206/9/3
f 252/2/3 243/2/3 242/2/3
f 252/10/3 244/10/3 243/10/3
f 253/1/3 245/1/3 244/1/3
f 253/10/3 244/10/3 252/10/3
f 254/8/3 246/8/3 245/8/3
f 254/1/3 245/1/3 253/1/3
f 255/8/3 199/8/3 246/8/3
f 255/8/3 246/8/3 254/8/3
f 256/7/3 200/7/3 199/7/3
f 256/8/3 199/8/3 255/8/3
f 257/3/3 247/3/3 237/3/3
f 257/3/3 248/3/3 247/3/3
f 258/3/3 248/3/3 257/3/3
f 259/9/3 251/9/3 250/9/3
f 260/9/3 251/9/3 259/9/3
f 261/5/3 241/5/3 240/5/3
f 261/9/3 251/9/3 260/9/3
f 261/9/3 240/9/3 251/9/3
f 262/10/3 242/10/3 241/10/3
f 262/5/3 241/5/3 261/5/3
f 263/2/3 252/2/3 242/2/3
f 263/10/3 242/10/3 262/10/3
f 263/2/3 253/2/3 252/2/3
f 264/10/3 254/10/3 253/10/3
f 264/2/3 253/2/3 263/2/3
f 265/10/3 254/10/3 264/10/3
f 266/8/3 255/8/3 254/8/3
f 266/10/3 254/10/3 265/10/3
f 267/7/3 256/7/3 255/7/3
f 267/8/3 255/8/3 266/8/3
f 268/7/3 200/7/3 256/7/3
f 268/7/3 256/7/3 267/7/3
f 268/3/3 236/3/3 200/3/3
f 269/5/3 237/5/3 236/5/3
f 269/3/3 236/3/3 268/3/3
f 270/3/3 257/3/3 237/3/3
f 270/5/3 237/5/3 269/5/3
f 271/5/3 262/5/3 261/5/3
f 271/5/3 261/5/3 260/5/3
f 272/12/3 263/12/3 262/12/3
f 272/5/3 262/5/3 271/5/3
f 273/12/3 263/12/3 272/12/3
f 274/3/3 269/3/3 268/3/3
f 275/6/3 270/6/3 269/6/3
f 275/3/3 269/3/3 274/3/3
f 276/3/3 257/3/3 270/3/3
f 276/6/3 270/6/3 275/6/3
f 277/3/3 257/3/3 276/3/3
f 278/1/3 265/1/3 264/1/3
f 279/1/3 265/1/3 278/1/3
f 280/3/3 276/3/3 275/3/3
f 281/3/3 276/3/3 280/3/3
f 282/8/3 279/8/3 278/8/3
f 283/8/3 279/8/3 282/8/3
f 284/8/4 285/8/4 286/8/4
f 286/8/4 285/8/4 287/8/4
f 288/3/4 289/3/4 293/3/4
f 293/3/4 289/3/4 294/3/4
f 290/5/4 291/5/4 300/5/4
f 300/5/4 291/5/4 301/5/4
f 286/1/4 287/1/4 305/1/4
f 305/1/4 287/1/4 306/1/4
f 292/3/4 293/3/4 309/3/4
f 293/5/4 294/5/4 310/5/4
f 309/3/4 293/3/4 310/3/4
f 294/3/4 295/3/4 311/3/4
f 310/5/4 294/5/4 311/5/4
f 311/3/4 295/3/4 312/3/4
f 296/4/4 297/4/4 314/4/4
f 314/4/4 297/4/4 315/4/4
f 298/4/4 299/4/4 316/4/4
f 299/9/4 300/9/4 317/9/4
f 316/4/4 299/4/4 317/4/4
f 300/9/4 301/9/4 317/9/4
f 301/9/4 302/9/4 317/9/4
f 317/9/4 302/9/4 318/9/4
f 304/2/4 305/2/4 319/2/4
f 305/10/4 306/10/4 320/10/4
f 319/2/4 305/2/4 320/2/4
f 306/10/4 307/10/4 320/10/4
f 307/8/4 308/8/4 321/8/4
f 320/10/4 307/10/4 321/10/4
f 309/3/4 310/3/4 322/3/4
f 312/3/4 313/3/4 322/3/4
f 311/3/4 312/3/4 322/3/4
f 310/3/4 311/3/4 322/3/4
f 322/3/4 313/3/4 323/3/4
f 302/5/4 303/5/4 325/5/4
f 318/9/4 302/9/4 325/9/4
f 303/10/4 304/10/4 326/10/4
f 325/5/4 303/5/4 326/5/4
f 304/2/4 319/2/4 327/2/4
f 326/10/4 304/10/4 327/10/4
f 319/10/4 320/10/4 328/10/4
f 327/2/4 319/2/4 328/2/4
f 320/1/4 321/1/4 329/1/4
f 328/10/4 320/10/4 329/10/4
f 321/8/4 308/8/4 330/8/4
f 329/1/4 321/1/4 330/1/4
f 330/8/4 308/8/4 331/8/4
f 322/5/4 323/5/4 332/5/4
f 323/3/4 324/3/4 333/3/4
f 332/5/4 323/5/4 333/5/4
f 333/3/4 324/3/4 334/3/4
f 326/1/4 327/1/4 335/1/4
f 327/10/4 328/10/4 335/10/4
f 328/1/4 329/1/4 336/1/4
f 335/10/4 328/10/4 336/10/4
f 329/1/4 330/1/4 336/1/4
f 330/13/4 331/13/4 337/13/4
f 336/1/4 330/1/4 337/1/4
f 337/13/4 331/13/4 338/13/4
f 322/5/4 332/5/4 339/5/4
f 309/3/4 322/3/4 339/3/4
f 339/5/4 332/5/4 340/5/4
f 332/3/4 333/3/4 341/3/4
f 340/5/4 332/5/4 341/5/4
f 341/3/4 333/3/4 342/3/4
f 326/1/4 335/1/4 344/1/4
f 335/1/4 336/1/4 344/1/4
f 336/1/4 337/1/4 344/1/4
f 344/1/4 337/1/4 345/1/4
f 337/8/4 338/8/4 346/8/4
f 345/1/4 337/1/4 346/1/4
f 338/13/4 331/13/4 347/13/4
f 346/8/4 338/8/4 347/8/4
f 339/3/4 340/3/4 348/3/4
f 309/3/4 339/3/4 348/3/4
f 340/5/4 341/5/4 349/5/4
f 348/3/4 340/3/4 349/3/4
f 349/5/4 341/5/4 350/5/4
f 341/6/4 342/6/4 351/6/4
f 350/5/4 341/5/4 351/5/4
f 318/9/4 325/9/4 352/9/4
f 325/12/4 326/12/4 352/12/4
f 326/1/4 344/1/4 353/1/4
f 352/12/4 326/12/4 353/12/4
f 344/10/4 345/10/4 354/10/4
f 353/1/4 344/1/4 354/1/4
f 345/1/4 346/1/4 355/1/4
f 354/10/4 345/10/4 355/10/4
f 355/1/4 346/1/4 356/1/4
f 346/13/4 347/13/4 357/13/4
f 356/1/4 346/1/4 357/1/4
f 347/13/4 331/13/4 358/13/4
f 357/13/4 347/13/4 358/13/4
f 331/8/4 308/8/4 358/8/4
f 350/6/4 351/6/4 359/6/4
f 349/3/4 350/3/4 359/3/4
f 351/6/4 342/6/4 360/6/4
f 359/6/4 351/6/4 360/6/4
f 342/3/4 343/3/4 360/3/4
f 360/3/4 343/3/4 361/3/4
f 318/9/4 352/9/4 366/9/4
f 354/2/4 355/2/4 367/2/4
f 355/10/4 356/10/4 367/10/4
f 356/1/4 357/1/4 368/1/4
f 367/10/4 356/10/4 368/10/4
f 357/8/4 358/8/4 369/8/4
f 368/1/4 357/1/4 369/1/4
f 358/8/4 308/8/4 370/8/4
f 369/8/4 358/8/4 370/8/4
f 308/7/4 309/7/4 371/7/4
f 370/8/4 308/8/4 371/8/4
f 349/3/4 359/3/4 372/3/4
f 359/3/4 360/3/4 372/3/4
f 372/3/4 360/3/4 373/3/4
f 362/4/4 363/4/4 374/4/4
f 374/4/4 363/4/4 375/4/4
f 364/4/4 365/4/4 376/4/4
f 365/9/4 366/9/4 377/9/4
f 376/4/4 365/4/4 377/4/4
f 377/9/4 366/9/4 378/9/4
f 366/9/4 352/9/4 379/9/4
f 378/9/4 366/9/4 379/9/4
f 352/5/4 353/5/4 380/5/4
f 379/9/4 352/9/4 380/9/4
f 353/10/4 354/10/4 381/10/4
f 380/5/4 353/5/4 381/5/4
f 354/2/4 367/2/4 382/2/4
f 381/10/4 354/10/4 382/10/4
f 367/2/4 368/2/4 382/2/4
f 368/10/4 369/10/4 383/10/4
f 382/2/4 368/2/4 383/2/4
f 383/10/4 369/10/4 384/10/4
f 369/8/4 370/8/4 385/8/4
f 384/10/4 369/10/4 385/10/4
f 370/7/4 371/7/4 386/7/4
f 385/8/4 370/8/4 386/8/4
f 371/7/4 309/7/4 387/7/4
f 386/7/4 371/7/4 387/7/4
f 309/3/4 348/3/4 387/3/4
f 348/5/4 349/5/4 388/5/4
f 387/3/4 348/3/4 388/3/4
f 349/3/4 372/3/4 389/3/4
f 388/5/4 349/5/4 389/5/4
f 378/5/4 379/5/4 390/5/4
f 390/5/4 379/5/4 391/5/4
f 387/3/4 388/3/4 392/3/4
f 388/6/4 389/6/4 393/6/4
f 392/3/4 388/3/4 393/3/4
f 389/3/4 372/3/4 394/3/4
f 393/6/4 389/6/4 394/6/4
f 394/3/4 372/3/4 395/3/4
f 383/1/4 384/1/4 396/1/4
f 396/1/4 384/1/4 397/1/4
f 393/3/4 394/3/4 398/3/4
f 398/3/4 394/3/4 399/3/4
f 396/8/4 397/8/4 400/8/4
f 400/8/4 397/8/4 401/8/4
f 402/5/4 403/5/4 406/5/4
f 406/5/4 403/5/4 407/5/4
f 404/11/4 405/11/4 408/11/4
f 408/11/4 405/11/4 409/11/4
f 410/11/4 411/11/4 412/11/4
f 412/11/4 411/11/4 413/11/4
f 414/5/4 415/5/4 417/5/4
f 415/13/4 416/13/4 418/13/4
f 417/5/4 415/5/4 418/5/4
f 418/13/4 416/13/4 419/13/4
f 424/4/5 421/4/5 420/4/5
f 425/4/5 421/4/5 424/4/5
f 426/4/5 423/4/5 422/4/5
f 427/4/5 423/4/5 426/4/5
f 432/11/5 429/11/5 428/11/5
f 433/11/5 429/11/5 432/11/5
f 434/11/5 431/11/5 430/11/5
f 435/11/5 431/11/5 434/11/5
f 440/5/5 437/5/5 436/5/5
f 441/5/5 437/5/5 440/5/5
f 442/5/5 439/5/5 438/5/5
f 443/5/5 439/5/5 442/5/5
f 448/9/5 445/9/5 444/9/5
f 449/9/5 445/9/5 448/9/5
f 452/5/5 447/5/5 446/5/5
f 453/5/5 447/5/5 452/5/5
f 454/5/5 451/5/5 450/5/5
f 455/5/5 451/5/5 454/5/5
f 462/8/5 457/8/5 456/8/5
f 463/1/5 458/1/5 457/1/5
f 463/8/5 457/8/5 462/8/5
f 464/1/5 458/1/5 463/1/5
f 465/1/5 460/1/5 459/1/5
f 466/8/5 461/8/5 460/8/5
f 466/1/5 460/1/5 465/1/5
f 467/8/5 461/8/5 466/8/5
f 472/3/5 469/3/5 468/3/5
f 473/3/5 469/3/5 472/3/5
f 474/3/5 471/3/5 470/3/5
f 475/3/5 471/3/5 474/3/5
f 480/3/5 477/3/5 476/3/5
f 481/3/5 477/3/5 480/3/5
f 482/3/5 479/3/5 478/3/5
f 483/3/5 479/3/5 482/3/5
f 484/4/6 485/4/6 488/4/6
f 488/4/6 485/4/6 489/4/6
f 486/4/6 487/4/6 490/4/6
f 490/4/6 487/4/6 491/4/6
f 492/11/6 493/11/6 496/11/6
f 496/11/6 493/11/6 497/11/6
f 494/11/6 495/11/6 498/11/6
f 498/11/6 495/11/6 499/11/6
f 500/4/6 501/4/6 504/4/6
f 504/4/6 501/4/6 505/4/6
f 502/4/6 503/4/6 506/4/6
f 506/4/6 503/4/6 507/4/6
f 508/5/6 509/5/6 510/5/6
f 508/5/6 510/5/6 511/5/6
f 511/5/6 510/5/6 512/5/6
f 513/12/6 514/12/6 515/12/6
f 515/12/6 514/12/6 516/12/6
f 515/13/6 516/13/6 517/13/6
f 517/13/6 516/13/6 518/13/6
f 519/8/6 520/8/6 525/8/6
f 520/1/6 521/1/6 526/1/6
f 525/8/6 520/8/6 526/8/6
f 526/1/6 521/1/6 527/1/6
f 522/1/6 523/1/6 528/1/6
f 523/8/6 524/8/6 529/8/6
f 528/1/6 523/1/6 529/1/6
f 529/8/6 524/8/6 530/8/6
f 531/3/6 532/3/6 535/3/6
f 535/3/6 532/3/6 536/3/6
f 533/3/6 534/3/6 537/3/6
f 537/3/6 534/3/6 538/3/6
f 539/3/6 540/3/6 543/3/6
f 543/3/6 540/3/6 544/3/6
f 541/3/6 542/3/6 545/3/6
f 545/3/6 542/3/6 546/3/6
f 547/3/6 548/3/6 553/3/6
f 553/3/6 548/3/6 554/3/6
f 549/3/6 550/3/6 555/3/6
f 555/3/6 550/3/6 556/3/6
f 551/3/6 552/3/6 557/3/6
f 557/3/6 552/3/6 558/3/6
f 559/3/6 560/3/6 563/3/6
f 563/3/6 560/3/6 564/3/6
f 561/3/6 562/3/6 565/3/6
f 565/3/6 562/3/6 566/3/6
