# MagicaVoxel @ Ephtracy

# group
g banker_v1

# material
mtllib banker_v1.mtl
usemtl palette

# normals
vn -1 0 0
vn 1 0 0
vn 0 0 1
vn 0 0 -1
vn 0 -1 0
vn 0 1 0

# texcoords
vt 0.119141 0.5
vt 0.158203 0.5
vt 0.271484 0.5
vt 0.298828 0.5
vt 0.361328 0.5
vt 0.392578 0.5
vt 0.431641 0.5
vt 0.560547 0.5
vt 0.919922 0.5
vt 0.943359 0.5
vt 0.951172 0.5
vt 0.978516 0.5
vt 0.986328 0.5
vt 0.994141 0.5

# verts
v -10.5 17 -0.5
v -10.5 17 -1.5
v -10.5 18 -0.5
v -10.5 18 -1.5
v -4.5 9 -0.5
v -4.5 9 -1.5
v -4.5 10 -1.5
v -4.5 10 -2.5
v -4.5 12 -0.5
v -4.5 12 -2.5
v -4.5 23 -0.5
v -4.5 23 -1.5
v -4.5 24 -0.5
v -4.5 24 -1.5
v -3.5 0 2.5
v -3.5 0 -1.5
v -3.5 1 2.5
v -3.5 1 0.5
v -3.5 1 -1.5
v -3.5 1 -2.5
v -3.5 2 -1.5
v -3.5 2 -2.5
v -3.5 4 0.5
v -3.5 4 -0.5
v -3.5 4 -1.5
v -3.5 9 -0.5
v -3.5 9 -1.5
v -3.5 12 -0.5
v -3.5 12 -1.5
v -3.5 17 -0.5
v -3.5 17 -1.5
v -3.5 18 -0.5
v -3.5 18 -1.5
v -3.5 19 -0.5
v -3.5 19 -1.5
v -3.5 22 -0.5
v -3.5 22 -1.5
v -3.5 23 -0.5
v -3.5 23 -1.5
v -3.5 24 -0.5
v -3.5 24 -1.5
v -3.5 26 -0.5
v -3.5 26 -1.5
v -2.5 26 -0.5
v -2.5 26 -1.5
v -2.5 27 -0.5
v -2.5 27 -1.5
v 2.5 0 2.5
v 2.5 0 -1.5
v 2.5 1 2.5
v 2.5 1 0.5
v 2.5 1 -1.5
v 2.5 1 -2.5
v 2.5 2 -1.5
v 2.5 2 -2.5
v 2.5 4 0.5
v 2.5 4 -0.5
v 2.5 4 -1.5
v 2.5 10 -0.5
v 2.5 10 -1.5
v 3.5 10 -1.5
v 3.5 10 -2.5
v 3.5 11 -1.5
v 3.5 12 -1.5
v 3.5 12 -2.5
v 3.5 13 -1.5
v 3.5 13 -2.5
v -3.5 10 -1.5
v -3.5 10 -2.5
v -3.5 11 -1.5
v -3.5 12 -1.5
v -3.5 12 -2.5
v -2.5 0 2.5
v -2.5 0 -1.5
v -2.5 1 2.5
v -2.5 1 0.5
v -2.5 1 -1.5
v -2.5 1 -2.5
v -2.5 2 -1.5
v -2.5 2 -2.5
v -2.5 4 0.5
v -2.5 4 -0.5
v -2.5 4 -1.5
v -2.5 10 -0.5
v -2.5 10 -1.5
v 2.5 26 -0.5
v 2.5 26 -1.5
v 2.5 27 -0.5
v 2.5 27 -1.5
v 3.5 0 2.5
v 3.5 0 -1.5
v 3.5 1 2.5
v 3.5 1 0.5
v 3.5 1 -1.5
v 3.5 1 -2.5
v 3.5 2 -1.5
v 3.5 2 -2.5
v 3.5 4 0.5
v 3.5 4 -0.5
v 3.5 4 -1.5
v 3.5 9 -0.5
v 3.5 9 -1.5
v 3.5 13 -0.5
v 3.5 13 -1.5
v 3.5 17 -0.5
v 3.5 17 -1.5
v 3.5 18 -0.5
v 3.5 18 -1.5
v 3.5 19 -0.5
v 3.5 19 -1.5
v 3.5 21 -0.5
v 3.5 21 -1.5
v 3.5 23 -0.5
v 3.5 23 -1.5
v 3.5 24 -0.5
v 3.5 24 -1.5
v 3.5 26 -0.5
v 3.5 26 -1.5
v 4.5 9 -0.5
v 4.5 9 -1.5
v 4.5 10 -1.5
v 4.5 10 -2.5
v 4.5 12 -0.5
v 4.5 12 -1.5
v 4.5 12 -2.5
v 4.5 13 -0.5
v 4.5 13 -1.5
v 4.5 13 -2.5
v 4.5 23 -0.5
v 4.5 23 -1.5
v 4.5 24 -0.5
v 4.5 24 -1.5
v 10.5 17 -0.5
v 10.5 17 -1.5
v 10.5 18 -0.5
v 10.5 18 -1.5
v -3.5 0 2.5
v -3.5 1 2.5
v -2.5 0 2.5
v -2.5 1 2.5
v 2.5 0 2.5
v 2.5 1 2.5
v 3.5 0 2.5
v 3.5 1 2.5
v -3.5 1 0.5
v -3.5 4 0.5
v -2.5 1 0.5
v -2.5 4 0.5
v 2.5 1 0.5
v 2.5 4 0.5
v 3.5 1 0.5
v 3.5 4 0.5
v -10.5 17 -0.5
v -10.5 18 -0.5
v -8.5 17 -0.5
v -8.5 18 -0.5
v -4.5 9 -0.5
v -4.5 12 -0.5
v -4.5 23 -0.5
v -4.5 24 -0.5
v -3.5 4 -0.5
v -3.5 9 -0.5
v -3.5 11 -0.5
v -3.5 12 -0.5
v -3.5 17 -0.5
v -3.5 18 -0.5
v -3.5 19 -0.5
v -3.5 22 -0.5
v -3.5 23 -0.5
v -3.5 24 -0.5
v -3.5 26 -0.5
v -2.5 4 -0.5
v -2.5 10 -0.5
v -2.5 12 -0.5
v -2.5 18 -0.5
v -2.5 19 -0.5
v -2.5 24 -0.5
v -2.5 25 -0.5
v -2.5 26 -0.5
v -2.5 27 -0.5
v -1.5 11 -0.5
v -1.5 12 -0.5
v -1.5 18 -0.5
v -1.5 19 -0.5
v -1.5 25 -0.5
v -1.5 26 -0.5
v 0.5 24 -0.5
v 0.5 25 -0.5
v 1.5 11 -0.5
v 1.5 12 -0.5
v 1.5 18 -0.5
v 1.5 19 -0.5
v 2.5 4 -0.5
v 2.5 10 -0.5
v 2.5 12 -0.5
v 2.5 18 -0.5
v 2.5 19 -0.5
v 2.5 21 -0.5
v 2.5 22 -0.5
v 2.5 25 -0.5
v 2.5 26 -0.5
v 2.5 27 -0.5
v 3.5 4 -0.5
v 3.5 9 -0.5
v 3.5 11 -0.5
v 3.5 12 -0.5
v 3.5 13 -0.5
v 3.5 17 -0.5
v 3.5 18 -0.5
v 3.5 19 -0.5
v 3.5 21 -0.5
v 3.5 23 -0.5
v 3.5 24 -0.5
v 3.5 26 -0.5
v 4.5 9 -0.5
v 4.5 12 -0.5
v 4.5 13 -0.5
v 4.5 23 -0.5
v 4.5 24 -0.5
v 8.5 17 -0.5
v 8.5 18 -0.5
v 10.5 17 -0.5
v 10.5 18 -0.5
v -10.5 17 -1.5
v -10.5 18 -1.5
v -8.5 17 -1.5
v -8.5 18 -1.5
v -4.5 9 -1.5
v -4.5 10 -1.5
v -4.5 23 -1.5
v -4.5 24 -1.5
v -3.5 0 -1.5
v -3.5 1 -1.5
v -3.5 2 -1.5
v -3.5 4 -1.5
v -3.5 9 -1.5
v -3.5 10 -1.5
v -3.5 11 -1.5
v -3.5 12 -1.5
v -3.5 17 -1.5
v -3.5 18 -1.5
v -3.5 19 -1.5
v -3.5 22 -1.5
v -3.5 23 -1.5
v -3.5 24 -1.5
v -3.5 26 -1.5
v -2.5 0 -1.5
v -2.5 1 -1.5
v -2.5 2 -1.5
v -2.5 4 -1.5
v -2.5 10 -1.5
v -2.5 12 -1.5
v -2.5 18 -1.5
v -2.5 19 -1.5
v -2.5 24 -1.5
v -2.5 25 -1.5
v -2.5 26 -1.5
v -2.5 27 -1.5
v -1.5 11 -1.5
v -1.5 12 -1.5
v -1.5 18 -1.5
v -1.5 19 -1.5
v -1.5 25 -1.5
v -1.5 26 -1.5
v 0.5 24 -1.5
v 0.5 25 -1.5
v 1.5 11 -1.5
v 1.5 12 -1.5
v 1.5 18 -1.5
v 1.5 19 -1.5
v 2.5 0 -1.5
v 2.5 1 -1.5
v 2.5 2 -1.5
v 2.5 4 -1.5
v 2.5 10 -1.5
v 2.5 12 -1.5
v 2.5 18 -1.5
v 2.5 19 -1.5
v 2.5 21 -1.5
v 2.5 22 -1.5
v 2.5 25 -1.5
v 2.5 26 -1.5
v 2.5 27 -1.5
v 3.5 0 -1.5
v 3.5 1 -1.5
v 3.5 2 -1.5
v 3.5 4 -1.5
v 3.5 9 -1.5
v 3.5 10 -1.5
v 3.5 11 -1.5
v 3.5 12 -1.5
v 3.5 13 -1.5
v 3.5 17 -1.5
v 3.5 18 -1.5
v 3.5 19 -1.5
v 3.5 21 -1.5
v 3.5 23 -1.5
v 3.5 24 -1.5
v 3.5 26 -1.5
v 4.5 9 -1.5
v 4.5 10 -1.5
v 4.5 23 -1.5
v 4.5 24 -1.5
v 8.5 17 -1.5
v 8.5 18 -1.5
v 10.5 17 -1.5
v 10.5 18 -1.5
v -4.5 10 -2.5
v -4.5 12 -2.5
v -3.5 1 -2.5
v -3.5 2 -2.5
v -3.5 10 -2.5
v -3.5 12 -2.5
v -2.5 1 -2.5
v -2.5 2 -2.5
v 2.5 1 -2.5
v 2.5 2 -2.5
v 3.5 1 -2.5
v 3.5 2 -2.5
v 3.5 10 -2.5
v 3.5 12 -2.5
v 3.5 13 -2.5
v 4.5 10 -2.5
v 4.5 12 -2.5
v 4.5 13 -2.5
v -3.5 0 2.5
v -2.5 0 2.5
v 2.5 0 2.5
v 3.5 0 2.5
v -3.5 0 -1.5
v -2.5 0 -1.5
v 2.5 0 -1.5
v 3.5 0 -1.5
v -3.5 1 -1.5
v -2.5 1 -1.5
v 2.5 1 -1.5
v 3.5 1 -1.5
v -3.5 1 -2.5
v -2.5 1 -2.5
v 2.5 1 -2.5
v 3.5 1 -2.5
v -4.5 9 -0.5
v -3.5 9 -0.5
v 3.5 9 -0.5
v 4.5 9 -0.5
v -4.5 9 -1.5
v -3.5 9 -1.5
v 3.5 9 -1.5
v 4.5 9 -1.5
v -2.5 10 -0.5
v 2.5 10 -0.5
v -4.5 10 -1.5
v -3.5 10 -1.5
v -2.5 10 -1.5
v 2.5 10 -1.5
v 3.5 10 -1.5
v 4.5 10 -1.5
v -4.5 10 -2.5
v -3.5 10 -2.5
v 3.5 10 -2.5
v 4.5 10 -2.5
v -10.5 17 -0.5
v -8.5 17 -0.5
v -3.5 17 -0.5
v 3.5 17 -0.5
v 8.5 17 -0.5
v 10.5 17 -0.5
v -10.5 17 -1.5
v -8.5 17 -1.5
v -3.5 17 -1.5
v 3.5 17 -1.5
v 8.5 17 -1.5
v 10.5 17 -1.5
v -4.5 23 -0.5
v -3.5 23 -0.5
v 3.5 23 -0.5
v 4.5 23 -0.5
v -4.5 23 -1.5
v -3.5 23 -1.5
v 3.5 23 -1.5
v 4.5 23 -1.5
v -3.5 1 2.5
v -2.5 1 2.5
v 2.5 1 2.5
v 3.5 1 2.5
v -3.5 1 0.5
v -2.5 1 0.5
v 2.5 1 0.5
v 3.5 1 0.5
v -3.5 2 -1.5
v -2.5 2 -1.5
v 2.5 2 -1.5
v 3.5 2 -1.5
v -3.5 2 -2.5
v -2.5 2 -2.5
v 2.5 2 -2.5
v 3.5 2 -2.5
v -3.5 4 0.5
v -2.5 4 0.5
v 2.5 4 0.5
v 3.5 4 0.5
v -3.5 4 -0.5
v -2.5 4 -0.5
v 2.5 4 -0.5
v 3.5 4 -0.5
v -4.5 12 -0.5
v -3.5 12 -0.5
v -3.5 12 -1.5
v -4.5 12 -2.5
v -3.5 12 -2.5
v 3.5 13 -0.5
v 4.5 13 -0.5
v 3.5 13 -1.5
v 4.5 13 -1.5
v 3.5 13 -2.5
v 4.5 13 -2.5
v -10.5 18 -0.5
v -8.5 18 -0.5
v -3.5 18 -0.5
v 3.5 18 -0.5
v 8.5 18 -0.5
v 10.5 18 -0.5
v -10.5 18 -1.5
v -8.5 18 -1.5
v -3.5 18 -1.5
v 3.5 18 -1.5
v 8.5 18 -1.5
v 10.5 18 -1.5
v -4.5 24 -0.5
v -3.5 24 -0.5
v 3.5 24 -0.5
v 4.5 24 -0.5
v -4.5 24 -1.5
v -3.5 24 -1.5
v 3.5 24 -1.5
v 4.5 24 -1.5
v -3.5 26 -0.5
v -2.5 26 -0.5
v 2.5 26 -0.5
v 3.5 26 -0.5
v -3.5 26 -1.5
v -2.5 26 -1.5
v 2.5 26 -1.5
v 3.5 26 -1.5
v -2.5 27 -0.5
v 2.5 27 -0.5
v -2.5 27 -1.5
v 2.5 27 -1.5

# faces
f 3/6/1 2/6/1 1/6/1
f 4/6/1 2/6/1 3/6/1
f 7/3/1 6/3/1 5/3/1
f 9/3/1 7/3/1 5/3/1
f 9/3/1 8/3/1 7/3/1
f 10/3/1 8/3/1 9/3/1
f 13/11/1 12/11/1 11/11/1
f 14/11/1 12/11/1 13/11/1
f 17/2/1 16/2/1 15/2/1
f 18/2/1 16/2/1 17/2/1
f 19/2/1 16/2/1 18/2/1
f 21/9/1 20/9/1 19/9/1
f 21/2/1 19/2/1 18/2/1
f 22/9/1 20/9/1 21/9/1
f 23/2/1 21/2/1 18/2/1
f 24/2/1 21/2/1 23/2/1
f 25/2/1 21/2/1 24/2/1
f 26/1/1 25/1/1 24/1/1
f 27/1/1 25/1/1 26/1/1
f 30/8/1 29/8/1 28/8/1
f 31/8/1 29/8/1 30/8/1
f 34/4/1 33/4/1 32/4/1
f 35/4/1 33/4/1 34/4/1
f 36/6/1 35/6/1 34/6/1
f 37/6/1 35/6/1 36/6/1
f 38/5/1 37/5/1 36/5/1
f 39/5/1 37/5/1 38/5/1
f 42/11/1 41/11/1 40/11/1
f 43/11/1 41/11/1 42/11/1
f 46/11/1 45/11/1 44/11/1
f 47/11/1 45/11/1 46/11/1
f 50/2/1 49/2/1 48/2/1
f 51/2/1 49/2/1 50/2/1
f 52/2/1 49/2/1 51/2/1
f 54/9/1 53/9/1 52/9/1
f 54/2/1 52/2/1 51/2/1
f 55/9/1 53/9/1 54/9/1
f 56/2/1 54/2/1 51/2/1
f 57/2/1 54/2/1 56/2/1
f 58/2/1 54/2/1 57/2/1
f 59/1/1 58/1/1 57/1/1
f 60/1/1 58/1/1 59/1/1
f 63/3/1 62/3/1 61/3/1
f 64/3/1 62/3/1 63/3/1
f 65/3/1 62/3/1 64/3/1
f 66/14/1 65/14/1 64/14/1
f 67/14/1 65/14/1 66/14/1
f 68/3/2 69/3/2 70/3/2
f 70/3/2 69/3/2 71/3/2
f 71/3/2 69/3/2 72/3/2
f 73/2/2 74/2/2 75/2/2
f 75/2/2 74/2/2 76/2/2
f 76/2/2 74/2/2 77/2/2
f 77/9/2 78/9/2 79/9/2
f 76/2/2 77/2/2 79/2/2
f 79/9/2 78/9/2 80/9/2
f 76/2/2 79/2/2 81/2/2
f 81/2/2 79/2/2 82/2/2
f 82/2/2 79/2/2 83/2/2
f 82/1/2 83/1/2 84/1/2
f 84/1/2 83/1/2 85/1/2
f 86/11/2 87/11/2 88/11/2
f 88/11/2 87/11/2 89/11/2
f 90/2/2 91/2/2 92/2/2
f 92/2/2 91/2/2 93/2/2
f 93/2/2 91/2/2 94/2/2
f 94/9/2 95/9/2 96/9/2
f 93/2/2 94/2/2 96/2/2
f 96/9/2 95/9/2 97/9/2
f 93/2/2 96/2/2 98/2/2
f 98/2/2 96/2/2 99/2/2
f 99/2/2 96/2/2 100/2/2
f 99/1/2 100/1/2 101/1/2
f 101/1/2 100/1/2 102/1/2
f 103/8/2 104/8/2 105/8/2
f 105/8/2 104/8/2 106/8/2
f 107/4/2 108/4/2 109/4/2
f 109/4/2 108/4/2 110/4/2
f 109/6/2 110/6/2 111/6/2
f 111/6/2 110/6/2 112/6/2
f 111/5/2 112/5/2 113/5/2
f 113/5/2 112/5/2 114/5/2
f 115/11/2 116/11/2 117/11/2
f 117/11/2 116/11/2 118/11/2
f 119/3/2 120/3/2 121/3/2
f 119/3/2 121/3/2 123/3/2
f 121/3/2 122/3/2 123/3/2
f 123/3/2 122/3/2 124/3/2
f 124/3/2 122/3/2 125/3/2
f 123/12/2 124/12/2 126/12/2
f 124/14/2 125/14/2 127/14/2
f 126/12/2 124/12/2 127/12/2
f 127/14/2 125/14/2 128/14/2
f 129/11/2 130/11/2 131/11/2
f 131/11/2 130/11/2 132/11/2
f 133/6/2 134/6/2 135/6/2
f 135/6/2 134/6/2 136/6/2
f 139/2/3 138/2/3 137/2/3
f 140/2/3 138/2/3 139/2/3
f 143/2/3 142/2/3 141/2/3
f 144/2/3 142/2/3 143/2/3
f 147/2/3 146/2/3 145/2/3
f 148/2/3 146/2/3 147/2/3
f 151/2/3 150/2/3 149/2/3
f 152/2/3 150/2/3 151/2/3
f 155/6/3 154/6/3 153/6/3
f 156/6/3 154/6/3 155/6/3
f 162/3/3 158/3/3 157/3/3
f 163/3/3 158/3/3 162/3/3
f 164/3/3 158/3/3 163/3/3
f 165/8/3 156/8/3 155/8/3
f 166/8/3 156/8/3 165/8/3
f 169/11/3 160/11/3 159/11/3
f 170/11/3 160/11/3 169/11/3
f 172/1/3 162/1/3 161/1/3
f 172/1/3 163/1/3 162/1/3
f 173/1/3 163/1/3 172/1/3
f 174/3/3 164/3/3 163/3/3
f 174/8/3 165/8/3 164/8/3
f 174/8/3 166/8/3 165/8/3
f 175/4/3 167/4/3 166/4/3
f 175/8/3 166/8/3 174/8/3
f 176/6/3 168/6/3 167/6/3
f 176/4/3 167/4/3 175/4/3
f 177/11/3 171/11/3 170/11/3
f 177/11/3 170/11/3 169/11/3
f 178/11/3 171/11/3 177/11/3
f 179/11/3 171/11/3 178/11/3
f 181/1/3 163/1/3 173/1/3
f 181/3/3 174/3/3 163/3/3
f 182/4/3 175/4/3 174/4/3
f 182/3/3 174/3/3 181/3/3
f 183/8/3 176/8/3 175/8/3
f 183/4/3 175/4/3 182/4/3
f 184/6/3 168/6/3 176/6/3
f 184/8/3 176/8/3 183/8/3
f 185/13/3 179/13/3 178/13/3
f 185/10/3 178/10/3 177/10/3
f 186/11/3 180/11/3 179/11/3
f 186/13/3 179/13/3 185/13/3
f 187/10/3 185/10/3 177/10/3
f 187/11/3 177/11/3 169/11/3
f 187/10/3 186/10/3 185/10/3
f 188/10/3 186/10/3 187/10/3
f 189/1/3 181/1/3 173/1/3
f 189/7/3 182/7/3 181/7/3
f 190/8/3 183/8/3 182/8/3
f 190/7/3 182/7/3 189/7/3
f 191/14/3 184/14/3 183/14/3
f 191/8/3 183/8/3 190/8/3
f 192/6/3 168/6/3 184/6/3
f 192/14/3 184/14/3 191/14/3
f 194/1/3 189/1/3 173/1/3
f 195/4/3 191/4/3 190/4/3
f 195/3/3 190/3/3 189/3/3
f 196/8/3 192/8/3 191/8/3
f 196/4/3 191/4/3 195/4/3
f 197/6/3 168/6/3 192/6/3
f 197/8/3 192/8/3 196/8/3
f 198/6/3 168/6/3 197/6/3
f 199/5/3 169/5/3 168/5/3
f 199/6/3 168/6/3 198/6/3
f 200/10/3 186/10/3 188/10/3
f 200/11/3 188/11/3 187/11/3
f 201/11/3 180/11/3 186/11/3
f 201/10/3 186/10/3 200/10/3
f 202/11/3 180/11/3 201/11/3
f 203/1/3 194/1/3 193/1/3
f 204/1/3 194/1/3 203/1/3
f 205/1/3 189/1/3 194/1/3
f 205/1/3 194/1/3 204/1/3
f 205/3/3 195/3/3 189/3/3
f 206/8/3 196/8/3 195/8/3
f 206/3/3 195/3/3 205/3/3
f 207/8/3 196/8/3 206/8/3
f 208/8/3 196/8/3 207/8/3
f 209/4/3 197/4/3 196/4/3
f 209/8/3 196/8/3 208/8/3
f 210/6/3 198/6/3 197/6/3
f 210/4/3 197/4/3 209/4/3
f 211/5/3 199/5/3 198/5/3
f 211/6/3 198/6/3 210/6/3
f 212/11/3 200/11/3 187/11/3
f 212/5/3 199/5/3 211/5/3
f 212/5/3 169/5/3 199/5/3
f 212/11/3 187/11/3 169/11/3
f 212/11/3 201/11/3 200/11/3
f 213/11/3 201/11/3 212/11/3
f 214/11/3 201/11/3 213/11/3
f 215/3/3 205/3/3 204/3/3
f 215/3/3 206/3/3 205/3/3
f 216/12/3 207/12/3 206/12/3
f 216/3/3 206/3/3 215/3/3
f 217/12/3 207/12/3 216/12/3
f 218/11/3 213/11/3 212/11/3
f 219/11/3 213/11/3 218/11/3
f 220/8/3 209/8/3 208/8/3
f 221/8/3 209/8/3 220/8/3
f 222/6/3 221/6/3 220/6/3
f 223/6/3 221/6/3 222/6/3
f 224/6/4 225/6/4 226/6/4
f 226/6/4 225/6/4 227/6/4
f 228/3/4 229/3/4 236/3/4
f 236/3/4 229/3/4 237/3/4
f 226/8/4 227/8/4 240/8/4
f 240/8/4 227/8/4 241/8/4
f 230/11/4 231/11/4 244/11/4
f 244/11/4 231/11/4 245/11/4
f 232/2/4 233/2/4 247/2/4
f 247/2/4 233/2/4 248/2/4
f 234/2/4 235/2/4 249/2/4
f 235/1/4 236/1/4 250/1/4
f 249/2/4 235/2/4 250/2/4
f 236/1/4 237/1/4 250/1/4
f 237/1/4 238/1/4 250/1/4
f 250/1/4 238/1/4 251/1/4
f 238/3/4 239/3/4 252/3/4
f 239/8/4 240/8/4 252/8/4
f 240/8/4 241/8/4 252/8/4
f 241/4/4 242/4/4 253/4/4
f 252/8/4 241/8/4 253/8/4
f 242/6/4 243/6/4 254/6/4
f 253/4/4 242/4/4 254/4/4
f 245/11/4 246/11/4 255/11/4
f 244/11/4 245/11/4 255/11/4
f 255/11/4 246/11/4 256/11/4
f 256/11/4 246/11/4 257/11/4
f 251/1/4 238/1/4 259/1/4
f 238/3/4 252/3/4 259/3/4
f 252/4/4 253/4/4 260/4/4
f 259/3/4 252/3/4 260/3/4
f 253/8/4 254/8/4 261/8/4
f 260/4/4 253/4/4 261/4/4
f 254/6/4 243/6/4 262/6/4
f 261/8/4 254/8/4 262/8/4
f 256/13/4 257/13/4 263/13/4
f 255/10/4 256/10/4 263/10/4
f 257/11/4 258/11/4 264/11/4
f 263/13/4 257/13/4 264/13/4
f 255/10/4 263/10/4 265/10/4
f 244/11/4 255/11/4 265/11/4
f 263/10/4 264/10/4 265/10/4
f 265/10/4 264/10/4 266/10/4
f 251/1/4 259/1/4 267/1/4
f 259/7/4 260/7/4 267/7/4
f 260/8/4 261/8/4 268/8/4
f 267/7/4 260/7/4 268/7/4
f 261/14/4 262/14/4 269/14/4
f 268/8/4 261/8/4 269/8/4
f 262/6/4 243/6/4 270/6/4
f 269/14/4 262/14/4 270/14/4
f 251/1/4 267/1/4 275/1/4
f 268/4/4 269/4/4 276/4/4
f 267/3/4 268/3/4 276/3/4
f 269/8/4 270/8/4 277/8/4
f 276/4/4 269/4/4 277/4/4
f 270/6/4 243/6/4 278/6/4
f 277/8/4 270/8/4 278/8/4
f 278/6/4 243/6/4 279/6/4
f 243/5/4 244/5/4 280/5/4
f 279/6/4 243/6/4 280/6/4
f 266/10/4 264/10/4 281/10/4
f 265/11/4 266/11/4 281/11/4
f 264/11/4 258/11/4 282/11/4
f 281/10/4 264/10/4 282/10/4
f 282/11/4 258/11/4 283/11/4
f 271/2/4 272/2/4 284/2/4
f 284/2/4 272/2/4 285/2/4
f 273/2/4 274/2/4 286/2/4
f 274/1/4 275/1/4 287/1/4
f 286/2/4 274/2/4 287/2/4
f 287/1/4 275/1/4 288/1/4
f 275/1/4 267/1/4 289/1/4
f 288/1/4 275/1/4 289/1/4
f 267/3/4 276/3/4 290/3/4
f 289/1/4 267/1/4 290/1/4
f 276/8/4 277/8/4 291/8/4
f 290/3/4 276/3/4 291/3/4
f 291/8/4 277/8/4 292/8/4
f 292/8/4 277/8/4 293/8/4
f 277/4/4 278/4/4 294/4/4
f 293/8/4 277/8/4 294/8/4
f 278/6/4 279/6/4 295/6/4
f 294/4/4 278/4/4 295/4/4
f 279/5/4 280/5/4 296/5/4
f 295/6/4 279/6/4 296/6/4
f 265/11/4 281/11/4 297/11/4
f 296/5/4 280/5/4 297/5/4
f 280/5/4 244/5/4 297/5/4
f 244/11/4 265/11/4 297/11/4
f 281/11/4 282/11/4 297/11/4
f 297/11/4 282/11/4 298/11/4
f 298/11/4 282/11/4 299/11/4
f 288/3/4 289/3/4 300/3/4
f 300/3/4 289/3/4 301/3/4
f 297/11/4 298/11/4 302/11/4
f 302/11/4 298/11/4 303/11/4
f 293/8/4 294/8/4 304/8/4
f 304/8/4 294/8/4 305/8/4
f 304/6/4 305/6/4 306/6/4
f 306/6/4 305/6/4 307/6/4
f 308/3/4 309/3/4 312/3/4
f 312/3/4 309/3/4 313/3/4
f 310/9/4 311/9/4 314/9/4
f 314/9/4 311/9/4 315/9/4
f 316/9/4 317/9/4 318/9/4
f 318/9/4 317/9/4 319/9/4
f 320/3/4 321/3/4 323/3/4
f 321/14/4 322/14/4 324/14/4
f 323/3/4 321/3/4 324/3/4
f 324/14/4 322/14/4 325/14/4
f 330/2/5 327/2/5 326/2/5
f 331/2/5 327/2/5 330/2/5
f 332/2/5 329/2/5 328/2/5
f 333/2/5 329/2/5 332/2/5
f 338/9/5 335/9/5 334/9/5
f 339/9/5 335/9/5 338/9/5
f 340/9/5 337/9/5 336/9/5
f 341/9/5 337/9/5 340/9/5
f 346/3/5 343/3/5 342/3/5
f 347/3/5 343/3/5 346/3/5
f 348/3/5 345/3/5 344/3/5
f 349/3/5 345/3/5 348/3/5
f 354/1/5 351/1/5 350/1/5
f 355/1/5 351/1/5 354/1/5
f 358/3/5 353/3/5 352/3/5
f 359/3/5 353/3/5 358/3/5
f 360/3/5 357/3/5 356/3/5
f 361/3/5 357/3/5 360/3/5
f 368/6/5 363/6/5 362/6/5
f 369/8/5 364/8/5 363/8/5
f 369/6/5 363/6/5 368/6/5
f 370/8/5 364/8/5 369/8/5
f 371/8/5 366/8/5 365/8/5
f 372/6/5 367/6/5 366/6/5
f 372/8/5 366/8/5 371/8/5
f 373/6/5 367/6/5 372/6/5
f 378/11/5 375/11/5 374/11/5
f 379/11/5 375/11/5 378/11/5
f 380/11/5 377/11/5 376/11/5
f 381/11/5 377/11/5 380/11/5
f 382/2/6 383/2/6 386/2/6
f 386/2/6 383/2/6 387/2/6
f 384/2/6 385/2/6 388/2/6
f 388/2/6 385/2/6 389/2/6
f 390/9/6 391/9/6 394/9/6
f 394/9/6 391/9/6 395/9/6
f 392/9/6 393/9/6 396/9/6
f 396/9/6 393/9/6 397/9/6
f 398/2/6 399/2/6 402/2/6
f 402/2/6 399/2/6 403/2/6
f 400/2/6 401/2/6 404/2/6
f 404/2/6 401/2/6 405/2/6
f 406/3/6 407/3/6 408/3/6
f 406/3/6 408/3/6 409/3/6
f 409/3/6 408/3/6 410/3/6
f 411/12/6 412/12/6 413/12/6
f 413/12/6 412/12/6 414/12/6
f 413/14/6 414/14/6 415/14/6
f 415/14/6 414/14/6 416/14/6
f 417/6/6 418/6/6 423/6/6
f 418/8/6 419/8/6 424/8/6
f 423/6/6 418/6/6 424/6/6
f 424/8/6 419/8/6 425/8/6
f 420/8/6 421/8/6 426/8/6
f 421/6/6 422/6/6 427/6/6
f 426/8/6 421/8/6 427/8/6
f 427/6/6 422/6/6 428/6/6
f 429/11/6 430/11/6 433/11/6
f 433/11/6 430/11/6 434/11/6
f 431/11/6 432/11/6 435/11/6
f 435/11/6 432/11/6 436/11/6
f 437/11/6 438/11/6 441/11/6
f 441/11/6 438/11/6 442/11/6
f 439/11/6 440/11/6 443/11/6
f 443/11/6 440/11/6 444/11/6
f 445/11/6 446/11/6 447/11/6
f 447/11/6 446/11/6 448/11/6
